<svg xmlns="http://www.w3.org/2000/svg" width="30" height="32" viewBox="0 0 30 32">
  <path d="M26.5 18.8q0.8 0.5 1.1 1.4t-0.2 1.7l-1.1 2q-0.5 0.8-1.4 1.1t-1.7-0.2l-4.7-2.7v5.5q0 0.9-0.7 1.6t-1.6 0.7h-2.3q-0.9 0-1.6-0.7t-0.7-1.6v-5.5l-4.7 2.7q-0.8 0.5-1.7 0.2t-1.4-1.1l-1.1-2q-0.5-0.8-0.2-1.7t1.1-1.4l4.8-2.7-4.7-2.7q-0.8-0.5-1.1-1.4t0.2-1.7l1.1-2q0.5-0.8 1.4-1.1t1.7 0.2l4.8 2.7v-5.5q0-0.9 0.7-1.6t1.6-0.7h2.3q0.9 0 1.6 0.7t0.7 1.6v5.5l4.8-2.7q0.8-0.5 1.7-0.2t1.4 1.1l1.1 2q0.5 0.8 0.2 1.7t-1.1 1.4l-4.7 2.8z"/>
</svg>
