<svg xmlns="http://www.w3.org/2000/svg" width="27" height="32" viewBox="0 0 27 32">
  <path d="M20.5 20q0-0.5-0.3-0.8l-3.2-3.2 3.2-3.2q0.3-0.3 0.3-0.8 0-0.5-0.3-0.8l-1.6-1.6q-0.3-0.3-0.8-0.3-0.5 0-0.8 0.3l-3.2 3.2-3.2-3.2q-0.3-0.3-0.8-0.3-0.5 0-0.8 0.3l-1.6 1.6q-0.3 0.3-0.3 0.8 0 0.5 0.3 0.8l3.2 3.2-3.2 3.2q-0.3 0.3-0.3 0.8 0 0.5 0.3 0.8l1.6 1.6q0.3 0.3 0.8 0.3 0.5 0 0.8-0.3l3.2-3.2 3.2 3.2q0.3 0.3 0.8 0.3 0.5 0 0.8-0.3l1.6-1.6q0.3-0.3 0.3-0.8zM27.4 16q0 3.7-1.8 6.9t-5 5-6.9 1.8-6.9-1.8-5-5-1.8-6.9 1.8-6.9 5-5 6.9-1.8 6.9 1.8 5 5 1.8 6.9z"/>
</svg>
