<svg xmlns="http://www.w3.org/2000/svg" width="32" height="32" viewBox="0 0 32 32">
  <path d="M28.8 3.2h-25.6c-1.8 0-3.2 1.4-3.2 3.2v19.2c0 1.8 1.4 3.2 3.2 3.2h25.6c1.8 0 3.2-1.4 3.2-3.2v-19.2c0-1.8-1.4-3.2-3.2-3.2zM28.8 25.6h-25.6v-19.2h25.6v19.2zM14.4 19.4h-8v2.9h8v-2.9zM14.4 14.6h-8v2.9h8v-2.9zM14.4 9.8h-8v2.9h8v-2.9zM25.4 20c0 0-2.7-0.7-2.7-2.1 0-1.3 1.8-1.9 1.8-4.6 0-2.2-0.7-3.5-2.9-3.5s-2.9 1.3-2.9 3.5c0 2.7 1.8 3.3 1.8 4.6 0 1.4-2.7 2.1-2.7 2.1-0.2 0-0.2 2.2-0.2 2.2h8c0 0 0-2.2-0.2-2.2z"/>
</svg>
