<svg xmlns="http://www.w3.org/2000/svg" width="32" height="32" viewBox="0 0 32 32">
  <path d="M28.8 1.6h-25.6c-1.8 0-3.2 1.4-3.2 3.2v19.2c0 1.8 1.4 3.2 3.2 3.2h6.4v-3.1h-6.4v-14.8h25.7v14.8h-6.4v3.1h6.4c1.8 0 3.2-1.4 3.2-3.2v-19.2c0-1.8-1.4-3.2-3.2-3.2zM4.2 6.9c-0.7 0-1.2-0.5-1.2-1.2s0.5-1.2 1.2-1.2c0.7 0 1.2 0.5 1.2 1.2s-0.5 1.2-1.2 1.2zM7.4 6.9c-0.7 0-1.2-0.5-1.2-1.2s0.5-1.2 1.2-1.2c0.7 0 1.2 0.5 1.2 1.2s-0.5 1.2-1.2 1.2zM28.8 6.8h-19.3v-2h19.3v2zM15.9 13.1l-7.8 7.7h4.8v9.6h5.9v-9.6h4.8l-7.8-7.7z"/>
</svg>
