<svg xmlns="http://www.w3.org/2000/svg" width="32" height="32" viewBox="0 0 32 32">
  <path d="M26.6 8.2l-14.4-7.4c-2-1-5.9 1-7 2.7-0.5 0.8-0.5 1.4-0.5 1.7l0.2 16.8c0 0.4 0.5 0.8 0.8 1.1 0.8 0.5 12.9 8 13.2 8.3 0.2 0.1 0.4 0.2 0.6 0.2 0.2 0 0.4 0 0.5-0.1 0.4-0.2 0.6-0.5 0.6-0.9v-17.6c0-0.4-0.2-0.7-0.6-0.9l-13.1-7.3c0.1-0.3 0.7-0.9 1.8-1.5 1.1-0.6 2-0.4 2.2-0.3 0 0 12.6 6.7 12.9 6.9 0.4 0.2 0.4 0.2 0.4 0.6 0 0.3 0 16.7 0 16.7 0 0.8 0.8 1.2 1.5 1.2 0.6 0 1.3-0.6 1.3-1.2v-18c0-0.4-0.2-0.7-0.6-0.9z"/>
</svg>
