<svg xmlns="http://www.w3.org/2000/svg" width="32" height="32" viewBox="0 0 32 32">
  <path d="M9.9 23.8l1.4-2.5q-1.6-1.1-2.4-2.8t-0.9-3.6q0-2.2 1.1-4-4.1 2.1-6.8 6.3 3 4.6 7.6 6.7zM16.9 10.3q0-0.4-0.2-0.6t-0.6-0.2q-2.2 0-3.8 1.6t-1.6 3.8q0 0.4 0.3 0.6t0.6 0.3 0.6-0.2 0.3-0.6q0-1.5 1.1-2.6t2.6-1.1q0.4 0 0.6-0.2t0.3-0.6zM23.3 6.9q0 0.1 0 0.2-1.9 3.4-5.6 10.1t-5.6 10.1l-0.9 1.6q-0.2 0.3-0.5 0.3-0.2 0-2.4-1.2-0.3-0.2-0.3-0.5 0-0.2 0.8-1.6-2.6-1.2-4.7-3.1t-3.7-4.4q-0.4-0.6-0.4-1.2t0.4-1.2q2.7-4.2 6.8-6.6t8.9-2.4q1.6 0 3.2 0.3l1-1.7q0.2-0.3 0.5-0.3 0.1 0 0.3 0.1t0.6 0.3 0.6 0.3 0.6 0.3 0.3 0.2q0.3 0.2 0.3 0.5zM24 14.9q0 2.5-1.4 4.5t-3.7 2.9l5-9q0.1 0.8 0.1 1.5zM32 17.1q0 0.6-0.4 1.2-0.7 1.1-1.9 2.6-2.7 3.1-6.2 4.8t-7.5 1.7l1.3-2.4q3.8-0.3 7-2.4t5.4-5.5q-2.1-3.2-5-5.2l1.1-2q1.7 1.1 3.3 2.7t2.6 3.3q0.4 0.6 0.4 1.2z"/>
</svg>
