<?xml version="1.0" encoding="utf-8"?>
<!-- Generator: Adobe Illustrator 16.0.0, SVG Export Plug-In . SVG Version: 6.00 Build 0)  -->
<!DOCTYPE svg PUBLIC "-//W3C//DTD SVG 1.1//EN" "http://www.w3.org/Graphics/SVG/1.1/DTD/svg11.dtd">
<svg version="1.1" id="Layer_1" xmlns="http://www.w3.org/2000/svg" xmlns:xlink="http://www.w3.org/1999/xlink" x="0px" y="0px"
	 width="32px" height="32px" viewBox="0 0 32 32" enable-background="new 0 0 32 32" xml:space="preserve">
<path d="M25.102,24.214c-4.104-1.473-5.473-2.735-5.473-5.47c0-1.684,1.264-1.052,1.789-4.104c0.211-1.263,1.367,0,1.578-2.841
	c0-1.157-0.631-1.368-0.631-1.368s0.316-1.683,0.42-2.945C22.891,5.909,21.838,1.7,16.053,1.7c-5.786,0-6.838,4.103-6.733,5.787
	c0.104,1.262,0.42,2.945,0.42,2.945S9.109,10.748,9.109,11.8c0.211,2.841,1.368,1.578,1.578,2.841
	c0.526,3.052,1.789,2.42,1.789,4.104c0,2.734-1.368,3.997-5.471,5.47c-4.208,1.474-6.838,3.052-6.838,4.104s0,3.577,0,3.577h31.667
	c0,0,0-2.525,0-3.577s-2.736-2.63-6.84-4.104H25.102z"/>
</svg>
