<svg xmlns="http://www.w3.org/2000/svg" width="32" height="32" viewBox="0 0 32 32">
  <path d="M13 4h3v2h-3zM10 6h3v2h-3zM13 8h3v2h-3zM10 10h3v2h-3zM13 12h3v2h-3zM10 14h3v2h-3zM13 16v2h-3v7c0 0.6 0.4 1 1 1h4c0.6 0 1-0.4 1-1v-9h-3zM15 24h-4v-2h4v2zM28.2 6.2l-4.5-4.5c-1-1-2.9-1.8-4.3-1.8h-15c-1.4 0-2.5 1.1-2.5 2.5v27c0 1.4 1.1 2.5 2.5 2.5h23c1.4 0 2.5-1.1 2.5-2.5v-19c0-1.4-0.8-3.3-1.8-4.3zM26.8 7.6c0.1 0.1 0.2 0.2 0.3 0.4h-5.1v-5.1c0.1 0.1 0.3 0.2 0.4 0.3l4.5 4.5zM28 29.5c0 0.3-0.2 0.5-0.5 0.5h-23c-0.3 0-0.5-0.2-0.5-0.5v-27c0-0.3 0.2-0.5 0.5-0.5h15c0.2 0 0.3 0 0.5 0.1v7.9h7.9c0 0.2 0.1 0.3 0.1 0.5v19z"/>
</svg>
