<svg xmlns="http://www.w3.org/2000/svg" width="32" height="32" viewBox="0 0 32 32">
  <path d="M4.6 24q0-0.5-0.3-0.8t-0.8-0.3-0.8 0.3-0.3 0.8 0.3 0.8 0.8 0.3 0.8-0.3 0.3-0.8zM29.7 13.7q0-0.9-0.7-1.6t-1.6-0.7h-10.3q0-0.4 0.3-0.9t0.6-1 0.6-1.2 0.3-1.5q0-1.2-0.8-1.7t-2.1-0.5q-0.4 0-1.6 2.5-0.4 0.8-0.7 1.2-0.7 1.1-2 2.6-1.3 1.4-1.8 1.9-1.2 1-2.5 1h-0.6v11.4h0.6q1.3 0 3 0.6t3.5 1.1 3.2 0.6q3.4 0 3.4-3 0-0.5-0.1-1 0.5-0.3 0.8-0.9t0.3-1.3-0.3-1.2q0.9-0.9 0.9-2.1 0-0.4-0.2-1t-0.4-0.8h5.9q0.9 0 1.6-0.7t0.7-1.6zM32 13.7q0 1.9-1.3 3.2t-3.2 1.4h-3q-0.1 1.1-0.7 2.1 0.1 0.4 0.1 0.8 0 1.8-1.1 3.2 0 2.5-1.5 3.9t-4.1 1.4q-2.4 0-5.7-1.2-2.9-1.1-4-1.1h-5.1q-0.9 0-1.6-0.7t-0.7-1.6v-11.4q0-0.9 0.7-1.6t1.6-0.7h5.1q0.2 0 0.4-0.1t0.4-0.2 0.4-0.3 0.4-0.4 0.4-0.4 0.3-0.4 0.3-0.3q1.2-1.3 1.8-2.3 0.2-0.4 0.6-1.1t0.7-1.3 0.7-1.1 1-0.9 1.2-0.3q2.2 0 3.7 1.2t1.5 3.4q0 1.2-0.4 2.3h6.7q1.9 0 3.2 1.4t1.4 3.2z"/>
</svg>
