<svg xmlns="http://www.w3.org/2000/svg" width="32" height="32" viewBox="0 0 32 32">
  <path d="M29.9 19.8l-2.8-2.5c-0.8-0.7-0.8-1.9 0-2.6l2.8-2.5c0.8-0.7 0.6-1.4-0.5-1.5l-3.7-0.3c-1.1-0.1-1.6-1-1.3-2l1.9-5.4c0.4-1-0.1-1.4-1-0.8l-4.3 2.7c-0.9 0.6-2.1 0.3-2.6-0.7l-1.6-2.8c-0.5-0.9-1.4-0.9-1.9 0l-1.5 2.5c-0.5 0.9-1.8 1.3-2.7 0.9l-2.6-1.2c-1-0.4-1.7 0.1-1.7 1.1l0.1 2.6c0.1 1.1-0.7 2.2-1.8 2.5l-2.5 0.7c-1 0.3-1.2 1.1-0.4 1.8l2.8 2.5c0.8 0.7 0.8 1.9 0 2.6l-2.8 2.5c-0.8 0.7-0.6 1.4 0.5 1.5l3.4 0.4c1.1 0.1 1.6 1.1 1.3 2.1l-1.7 5.2c-0.3 1 0.1 1.4 1.1 0.9l3.9-2.3c0.9-0.5 2.2-0.2 2.8 0.7l1.6 2.5c0.6 0.9 1.5 0.8 2-0.1l1.4-2.8c0.5-1 1.7-1.3 2.6-0.9l2.8 1.4c1 0.5 1.7 0 1.6-1.1l-0.1-2.6c-0.1-1.1 0.7-2.2 1.8-2.5l2.5-0.7c1-0.3 1.2-1.1 0.4-1.8zM17.6 22.7h-3.2v-3.4h3.2v3.4zM17.6 17.6h-3.2v-8.3h3.2v8.3z"/>
</svg>
