<svg xmlns="http://www.w3.org/2000/svg" width="32" height="32" viewBox="0 0 32 32">
  <path d="M12 17c-0.2 0.3-0.4 0.9-0.7 1.1-0.3 0.2-0.5 0.3-0.9 0.3-0.3 0.1-0.7 0.1-1 0.1v1.5h2.5v6h2v-10h-1.6c-0.1 0.4-0.2 0.7-0.4 1zM23 8h2c0.6 0 1-0.4 1-1v-6c0-0.6-0.4-1-1-1h-2c-0.6 0-1 0.4-1 1v6c0 0.6 0.4 1 1 1zM7 8h2c0.6 0 1-0.4 1-1v-6c0-0.6-0.4-1-1-1h-2c-0.6 0-1 0.4-1 1v6c0 0.6 0.4 1 1 1zM30 4h-2v5c0 0.6-0.4 1-1 1h-6c-0.6 0-1-0.4-1-1v-5h-8v5c0 0.6-0.4 1-1 1h-6c-0.6 0-1-0.4-1-1v-5h-2c-1.1 0-2 0.9-2 2v24c0 1.1 0.9 2 2 2h28c1.1 0 2-0.9 2-2v-24c0-1.1-0.9-2-2-2zM30 29c0 0.6-0.4 1-1 1h-26c-0.6 0-1-0.4-1-1v-16c0-0.6 0.4-1 1-1h26c0.6 0 1 0.4 1 1v16zM16 18h5c-0.9 1.2-1.7 2.3-2.3 3.7-0.6 1.4-0.6 2.8-0.7 4.3h2.1c0-0.7-0.2-1.4-0.1-2.2 0.1-0.8 0.4-1.5 0.6-2.3 0.3-0.8 0.6-1.5 1-2.1 0.4-0.7 0.9-1.2 1.4-1.7v-1.7h-7v2z"/>
</svg>
