<svg xmlns="http://www.w3.org/2000/svg" width="32" height="32" viewBox="0 0 32 32">
  <path d="M12 4c0 2.2 1.8 4 4 4s4-1.8 4-4c0-2.2-1.8-4-4-4s-4 1.8-4 4zM20.5 7.5c0 2.2 1.8 4 4 4s4-1.8 4-4c0-2.2-1.8-4-4-4s-4 1.8-4 4zM26 16c0 1.1 0.9 2 2 2s2-0.9 2-2c0-1.1-0.9-2-2-2s-2 0.9-2 2zM22.5 24.5c0 1.1 0.9 2 2 2s2-0.9 2-2c0-1.1-0.9-2-2-2s-2 0.9-2 2zM14 28c0 1.1 0.9 2 2 2s2-0.9 2-2c0-1.1-0.9-2-2-2s-2 0.9-2 2zM5.5 24.5c0 0 0 0 0 0 0 1.1 0.9 2 2 2s2-0.9 2-2c0 0 0 0 0 0s0 0 0 0c0-1.1-0.9-2-2-2s-2 0.9-2 2c0 0 0 0 0 0zM4.5 7.5c0 0 0 0 0 0 0 1.7 1.3 3 3 3s3-1.3 3-3c0 0 0 0 0 0s0 0 0 0c0-1.7-1.3-3-3-3s-3 1.3-3 3c0 0 0 0 0 0zM1.8 16c0 1.2 1 2.3 2.3 2.3s2.3-1 2.3-2.2c0-1.2-1-2.2-2.2-2.2s-2.2 1-2.2 2.3z"/>
</svg>
