<svg xmlns="http://www.w3.org/2000/svg" width="30" height="32" viewBox="0 0 30 32">
  <path d="M25.1 17.7v8.6q0 0.5-0.3 0.8t-0.8 0.3h-6.9v-6.9h-4.6v6.9h-6.9q-0.5 0-0.8-0.3t-0.3-0.8v-8.6q0 0 0-0.1t0-0.1l10.3-8.5 10.3 8.5q0 0 0 0.1zM29.1 16.5l-1.1 1.3q-0.1 0.2-0.4 0.2h-0.1q-0.2 0-0.4-0.1l-12.4-10.3-12.4 10.3q-0.2 0.1-0.4 0.1-0.2 0-0.4-0.2l-1.1-1.3q-0.1-0.2-0.1-0.4t0.2-0.4l12.8-10.7q0.6-0.5 1.4-0.5t1.4 0.5l4.4 3.6v-3.5q0-0.2 0.2-0.4t0.4-0.2h3.4q0.3 0 0.4 0.2t0.2 0.4v7.3l3.9 3.3q0.2 0.1 0.2 0.4t-0.1 0.4z"/>
</svg>
