<svg xmlns="http://www.w3.org/2000/svg" width="32" height="32" viewBox="0 0 32 32">
  <path d="M14.9 9.1q0-1.4-1-2.4t-2.4-1-2.4 1-1 2.4q0 0.8 0.3 1.5-0.7-0.3-1.5-0.3-1.4 0-2.4 1t-1 2.4 1 2.4 2.4 1 2.4-1 1-2.4q0-0.7-0.3-1.5 0.7 0.3 1.5 0.3 1.4 0 2.4-1t1-2.4zM30.1 21.7q0 0.3-0.9 1.2t-1.2 0.9q-0.2 0-0.5-0.3t-0.7-0.6-0.7-0.7-0.4-0.5l-1.7 1.7 3.9 3.9q0.5 0.5 0.5 1.2 0 0.8-0.7 1.4t-1.4 0.7q-0.7 0-1.2-0.5l-12-12q-3.1 2.3-6.5 2.3-2.9 0-4.7-1.8t-1.8-4.7q0-2.9 1.7-5.6t4.4-4.4 5.6-1.7q2.9 0 4.7 1.8t1.8 4.7q0 3.4-2.3 6.5l6.3 6.3 1.7-1.7q-0.1-0.1-0.5-0.4t-0.7-0.7-0.6-0.7-0.3-0.5q0-0.3 0.9-1.2t1.2-0.9q0.2 0 0.4 0.2 0.1 0.1 0.8 0.8t1.5 1.4 1.5 1.5 1.3 1.4 0.5 0.7z"/>
</svg>
