<svg xmlns="http://www.w3.org/2000/svg" width="32" height="32" viewBox="0 0 32 32">
  <path d="M16 19.3c3.8 0 7-1.3 7.2-3-0.6-1.6-1.2-3.3-1.8-5-0.4 1.2-2.8 2.1-5.4 2.1s-5-0.9-5.4-2.1c-0.6 1.7-1.2 3.4-1.8 5 0.2 1.7 3.4 3 7.2 3zM16 8.6c1.8 0 3.5-0.6 4-1.4-0.7-1.9-1.3-3.5-1.6-4.5-0.2-0.7-1.3-1-2.3-1s-2.1 0.4-2.3 1c-0.4 1-0.9 2.6-1.6 4.5 0.5 0.9 2.2 1.4 4 1.4zM30 20.9l-6-2.4 0.7 1.9c0 2-4 3.7-8.7 3.7s-8.7-1.6-8.7-3.7l0.7-1.9-6 2.4c-1.7 0.7-1.8 1.9-0.2 2.8l11.3 6.1c1.6 0.9 4.2 0.9 5.8 0l11.3-6.1c1.6-0.9 1.5-2.1-0.2-2.8z"/>
</svg>
