<svg xmlns="http://www.w3.org/2000/svg" width="27" height="32" viewBox="0 0 27 32">
  <path d="M4.6 24q0-0.5-0.3-0.8t-0.8-0.3-0.8 0.3-0.3 0.8 0.3 0.8 0.8 0.3 0.8-0.3 0.3-0.8zM25.1 13.7q0-0.9-0.7-1.6t-1.6-0.7h-6.3q0-1 0.9-2.8t0.9-2.9q0-1.7-0.6-2.6t-2.3-0.8q-0.5 0.5-0.7 1.5t-0.5 2.2-1.1 2q-0.4 0.4-1.4 1.6-0.1 0.1-0.4 0.5t-0.6 0.7-0.6 0.8-0.7 0.8-0.7 0.6-0.7 0.5-0.6 0.2h-0.6v11.4h0.6q0.2 0 0.6 0.1t0.6 0.1 0.7 0.2 0.6 0.2 0.6 0.2 0.5 0.2q3.8 1.3 6.1 1.3h2.2q3.4 0 3.4-3 0-0.5-0.1-1 0.5-0.3 0.8-0.9t0.3-1.3-0.3-1.2q0.9-0.9 0.9-2.1 0-0.4-0.2-1t-0.4-0.8q0.6 0 1-0.8t0.4-1.4zM27.4 13.7q0 1.6-0.9 2.9 0.2 0.6 0.2 1.2 0 1.4-0.7 2.6 0.1 0.4 0.1 0.8 0 1.8-1.1 3.2 0 2.5-1.5 3.9t-4.1 1.4h-2.3q-1.7 0-3.4-0.4t-3.9-1.2q-2.1-0.7-2.5-0.7h-5.1q-0.9 0-1.6-0.7t-0.7-1.6v-11.4q0-0.9 0.7-1.6t1.6-0.7h4.9q0.6-0.4 2.4-2.8 1-1.3 1.9-2.3 0.4-0.4 0.6-1.5t0.5-2.3 1.1-1.9q0.7-0.7 1.6-0.7 1.5 0 2.7 0.6t1.8 1.8 0.6 3.3q0 1.7-0.9 3.4h3.1q1.9 0 3.2 1.4t1.4 3.2z"/>
</svg>
