<svg xmlns="http://www.w3.org/2000/svg" width="32" height="32" viewBox="0 0 32 32"><path d="M5 11c1.5-1.2 2.7-0.4 4.4 1.6 0.2 0.2 0.4 0 0.6-0.2 0.1-0.1 2.3-2.1 2.4-2.2 0.1-0.1 0.2-0.3 0.1-0.5s-0.8-1-1.2-1.5c-2.9-3.8 7.9-6.3 6.3-6.4-0.8 0-4.2-0.1-4.7 0-2.1 0.2-4.6 2.1-5.9 3-1.7 1.2-2.3 1.8-2.4 1.9-0.5 0.4-0.1 1.4-0.9 2.2-0.9 0.8-1.5 0.2-2 0.7-0.3 0.2-1 0.8-1.2 1-0.2 0.2-0.2 0.5 0 0.8 0 0 2 2.2 2.2 2.4 0.2 0.2 0.6 0.4 0.9 0.1 0.3-0.2 1-0.9 1.1-1 0.1-0.1-0.1-1.4 0.6-1.9zM14.1 11.9c-0.2-0.2-0.4-0.2-0.6 0l-2.3 2c-0.2 0.2-0.2 0.5 0 0.6l13.3 15.1c0.3 0.4 0.8 0.4 1.2 0.1l1.6-1.3c0.4-0.3 0.4-0.9 0.1-1.2l-13.1-15.3zM31.8 5.4c-0.1-0.8-0.5-0.6-0.7-0.3-0.2 0.3-1.2 1.8-1.5 2.4-0.4 0.6-1.3 1.9-3.1 0.7-1.8-1.3-1.2-2.2-0.9-2.8 0.3-0.6 1.3-2.3 1.5-2.5 0.1-0.2 0-0.8-0.6-0.6-0.6 0.3-4 1.6-4.5 3.6-0.5 2 0.4 3.8-1.4 5.6l-2.1 2.2 2.2 2.5 2.6-2.5c0.6-0.6 2-1.2 3.2-1 2.6 0.6 4-0.4 4.9-2 0.8-1.5 0.6-4.5 0.5-5.3zM4.4 27.3c-0.3 0.3-0.3 0.9 0 1.2l1.5 1.5c0.3 0.3 0.9 0.2 1.2-0.1l7.9-7.7-2.4-2.7-8.2 7.9z"/></svg>