<svg xmlns="http://www.w3.org/2000/svg" width="32" height="32" viewBox="0 0 32 32">
  <path d="M32 22.3v5.7q0 0.7-0.5 1.2t-1.2 0.5h-5.7q-0.7 0-1.2-0.5t-0.5-1.2v-5.7q0-0.7 0.5-1.2t1.2-0.5h1.7v-3.4h-9.1v3.4h1.7q0.7 0 1.2 0.5t0.5 1.2v5.7q0 0.7-0.5 1.2t-1.2 0.5h-5.7q-0.7 0-1.2-0.5t-0.5-1.2v-5.7q0-0.7 0.5-1.2t1.2-0.5h1.7v-3.4h-9.1v3.4h1.7q0.7 0 1.2 0.5t0.5 1.2v5.7q0 0.7-0.5 1.2t-1.2 0.5h-5.7q-0.7 0-1.2-0.5t-0.5-1.2v-5.7q0-0.7 0.5-1.2t1.2-0.5h1.7v-3.4q0-0.9 0.7-1.6t1.6-0.7h9.1v-3.4h-1.7q-0.7 0-1.2-0.5t-0.5-1.2v-5.7q0-0.7 0.5-1.2t1.2-0.5h5.7q0.7 0 1.2 0.5t0.5 1.2v5.7q0 0.7-0.5 1.2t-1.2 0.5h-1.7v3.4h9.1q0.9 0 1.6 0.7t0.7 1.6v3.4h1.7q0.7 0 1.2 0.5t0.5 1.2z"/>
</svg>
