<svg xmlns="http://www.w3.org/2000/svg" width="27" height="32" viewBox="0 0 27 32">
  <path d="M21.3 9.7q0.2-0.1 0.4-0.4v0q0 0-0.2 0.2t-0.2 0.2q0 0-0.1 0zM21.2 9.7q0 0 0-0.1t0-0.1q0.1 0 0.2 0.1-0.1 0.1-0.1 0zM13 6.4q-0.3 0-0.5-0.1 0 0 0.1 0t0.2 0 0.2 0zM13.8 5.8q0.1-0.1 0.2 0t0.1 0.1q-0.1-0.1-0.4-0.1zM13.7 5.9l-0.1 0q0-0.1-0.1-0.1t-0.1 0q0 0 0.4 0.1-0.1 0.1-0.1 0.1zM11.8 4.4v0q0 0 0.1 0.1t0.1 0.1zM10 5.1q0 0 0 0l0 0h0zM16.7 23.8v0zM13.7 2.3q3.7 0 6.9 1.8t5 5 1.8 6.9-1.8 6.9-5 5-6.9 1.8-6.9-1.8-5-5-1.8-6.9 1.8-6.9 5-5 6.9-1.8zM22.1 24.5l0.1-0.1q-0.1-0.2-0.5-0.2 0-0.2-0.2-0.5t-0.5-0.3q0-0.1-0.2-0.2t-0.3-0.1q-0.2 0-0.5 0.2-0.1 0.1-0.1 0.1-0.1-0.1-0.2-0.2t-0.3-0.2q0 0-0.1 0t-0.2 0q0 0-0.1-0.1t-0.1-0.1-0.1-0.1-0.1 0-0.1 0-0.2 0.1-0.1 0.3 0 0.3q-0.1-0.1 0-0.4t0-0.4q-0.1-0.1-0.4 0t-0.4 0.3q0 0-0.2 0.1t-0.2 0.1q-0.1 0.1-0.2 0.3t-0.1 0.2q0 0 0-0.1t0-0.1q-0.2 0-0.3-0.1 0.1 0.3 0.1 0.3l-0.1 0q0 0.1 0.1 0.3t0.1 0.2q0 0.1 0 0.2t0 0.2q0 0 0.1 0.2 0.1 0.3 0 0.6 0 0-0.1 0.1t-0.1 0.2l0 0.1 0 0q0 0 0 0 0 0.1-0.2 0.2t-0.2 0.2q-0.3 0.4-0.2 0.7 0.1 0.1 0.2 0.2 0.1 0 0.1 0 0 0.2-0.2 0.5 0 0 0.1 0.1-0.3 0-0.2 0.3 3.6-0.6 6.3-3.2h-0.1zM12.1 21.2q0.3-0.1 0.5 0.3t0.4 0.4q0.7 0.4 1.1 0.2 0 0.2 0.3 0.5 0.1 0.1 0.1 0.2t0.1 0.2q0.1 0.1 0.3 0.3t0.3 0.3q0.1-0.1 0.2-0.2 0.2 0.6 0.4 0.6 0.1 0 0.1-0.1 0 0 0 0.1t0 0.1q0.1-0.3 0.1-0.5l0.1-0.1q0.1-0.1 0.1-0.1-0.1-0.1-0.2 0.1-0.5 0.3-0.9-0.4 0-0.1-0.1-0.1t-0.1-0.2 0-0.2 0.1-0.1q0.2 0 0.2 0t0-0.1-0.1-0.1q0-0.1 0-0.2t0-0.2l-0.1-0.1q-0.1-0.1-0.2-0.2t-0.1-0.2q-0.1 0.2-0.3 0.2t-0.3-0.2q0 0 0 0.1t0 0.1q-0.2 0-0.3 0 0-0.1 0.1-0.4t0.1-0.4q0-0.1 0.1-0.2t0.1-0.3 0.1-0.2-0.1-0.2-0.3 0q-0.4 0-0.5 0.4 0 0.1-0.1 0.2t-0.1 0.2-0.2 0.1q-0.1 0.1-0.5 0t-0.5-0.1q-0.2-0.1-0.4-0.5t-0.2-0.7q0-0.2 0.1-0.5t0.1-0.5-0.1-0.5q0.1 0 0.2-0.2t0.2-0.2q0 0 0.1 0h0.1t0.1 0 0.1-0.1q0 0-0.1-0.1-0.1-0.1-0.1-0.1 0.1 0.1 0.3 0t0.3 0q0 0 0.4 0 0.3 0.2 0.4 0 0 0 0-0.2t0-0.3q0.1 0.5 0.6 0.2 0.1 0.1 0.3 0.1t0.3 0.1q0.1 0 0.1 0.1t0.1 0.1 0.1 0 0.2-0.1q0.2 0.3 0.2 0.4 0.2 0.8 0.4 0.9 0.1 0 0.2 0t0.1-0.2 0-0.3 0-0.2l0-0.7q-0.3-0.1-0.4-0.2t0-0.4 0.3-0.3q0 0 0.3-0.1t0.4-0.2q0.4-0.3 0.3-0.7 0.2 0 0.2-0.2l-0.1-0.1q-0.1-0.1-0.1-0.1t-0.1 0q0.2-0.1 0-0.3 0.1-0.1 0.1-0.2t0.2-0.2q0.2 0.3 0.4 0.1 0.1-0.2 0-0.3 0.1-0.1 0.4-0.2t0.4-0.2q0.1 0 0.1 0t0-0.1v-0.1t0-0.2 0.1-0.1q0.1-0.1 0.3-0.2t0.3-0.1l0.3-0.2q0.1-0.1 0-0.1 0.3 0 0.6-0.2 0.2-0.2-0.1-0.4 0-0.1-0.1-0.2t-0.3-0.1q0.1 0 0.2 0t0.2 0q0.3-0.2-0.1-0.3-0.4-0.1-0.8 0.2-0.1 0-0.2 0.2t-0.3 0.2q0.3-0.3 0.1-0.4 0.1 0 0.4-0.2t0.3-0.2q0.1 0 0.2 0t0.2 0q1.3-0.4 1.6 0 0.1-0.2 0.2-0.3t0.2-0.2 0.3-0.1q0.4-0.1 0.4-0.2l0-0.4q-0.2 0-0.3-0.1t-0.1-0.4l-0.1 0.1q0-0.1-0.1-0.1t-0.1 0-0.2 0-0.1 0q-0.2 0-0.3-0.3t-0.3-0.3q0.2 0 0.2-0.1 0-0.1-0.2-0.1 0-0.1 0-0.1t-0.2 0q0-0.2 0-0.2-0.1 0-0.2-0.2t-0.1-0.2q0 0-0.1 0t-0.1 0.1l-0.1 0.1t-0.1 0.1l0 0q-0.2-0.1-0.4 0.2-0.2 0-0.3 0 0.3-0.1 0-0.2-0.2-0.1-0.4 0 0.2-0.1 0.2-0.2t-0.2-0.3q0 0 0.1 0t0.1 0q0-0.1-0.2-0.2t-0.3-0.2-0.2-0.1q-0.1-0.1-0.6-0.2t-0.6 0q-0.1 0.1-0.1 0.1t0 0.2 0.1 0.2q0.1 0.4 0.1 0.5 0 0.1-0.2 0.1t-0.1 0.2q0 0.1 0.2 0.2t0.2 0.2q0.1 0.2-0.1 0.4-0.1 0.1-0.3 0.2t-0.2 0.2q-0.1 0.1-0.1 0.2t0 0.2q0 0 0 0t0 0q0 0.2 0.2 0.4 0.1 0.1-0.3 0.3-0.4 0.2-0.4 0.1 0-0.1-0.1-0.3t-0.2-0.2-0.1-0.3-0.2-0.4q-0.1-0.1-0.3-0.1t-0.3 0.1q0-0.2-0.9-0.5-0.3-0.1-1-0.1 0.1 0 0-0.3-0.1-0.3-0.4-0.2-0.1-0.4-0.1-0.6 0-0.1 0.2-0.2t0.2-0.3q0-0.1 0.3-0.1t0.3-0.1q0-0.1 0-0.1t-0.2-0.1q0.9 0.1 1.1-0.3 0.1-0.2 0.1-0.2 0 0 0 0t0 0q0.2-0.1 0.1-0.3 0.3-0.1 0.5-0.1 0.1 0 0.2 0.1t0.2 0.1q0.3 0.1 0.4-0.2t-0.2-0.4q0.1 0.1 0.1-0.1 0-0.2-0.1-0.3-0.1 0-0.1 0t-0.1 0-0.1 0q0 0-0.1 0 0 0 0 0h-0.1q-0.1 0-0.1 0.1v0q0 0.1 0.1 0.1l0.1 0 0.1 0q0 0 0 0t0 0q0 0.1 0.1 0.1 0 0-0.2 0.1t-0.3 0.2q0 0-0.1 0t-0.1 0q0 0-0.1 0t-0.1-0.2-0.1-0.2-0.1-0.2-0.1-0.1q-0.2 0-0.3 0.3 0.1-0.2-0.2-0.3t-0.4-0.1q0.4-0.3-0.2-0.5l0 0q-0.5 0.1-0.8 0.1 0 0.1 0.1 0.2 0 0.1 0.1 0.2 0 0 0 0t0 0q0 0 0 0t0 0q0.1 0 0.2 0t0.2 0q0.1 0 0.1 0l0.1 0.1t0.1 0.1 0 0.1q0 0-0.2 0.1t-0.2 0.1-0.1 0.1q-0.1 0.1 0 0.3t0 0.3q-0.1-0.1-0.2-0.3t-0.1-0.3q0.1 0.2-0.5 0.1l-0.1 0q-0.1 0-0.3 0t-0.3 0q-0.1 0-0.5-0.1 0.1-0.3 0.1-0.4 0.1 0 0.1 0l-0.1-0.1q-0.1 0-0.4 0.2 0 0.1 0.1 0.2t0.2 0.2q-0.4-0.1-0.5 0 0 0-0.2 0-0.4 0-0.4 0.1 0 0.1 0.2 0.2 0 0.2 0 0.2-0.5-0.4-0.5-0.4-3.1 1.5-4.9 4.4 0 0 0 0.2t0.1 0.2 0.2-0.1q0.2 0.2 0.1 0.4 0 0 0.6 0.4 1 0.7 0.4 0.9v-0.1t0-0.1q-0.2 0-0.3-0.1-0.1 0.1 0 0.4t0.2 0.3q-0.1 0-0.2 0.3t0 0.7 0 0.5l0 0q-0.1 0.2 0.1 0.7t0.4 0.4q-0.1 0.3 0.1 0.4 0 0.1 0 0.1t0.1 0.2 0.1 0.1l0.2 0.2q0.5 0.2 0.7 0.5 0.1 0.1 0.2 0.4t0.3 0.5q0 0.1 0.2 0.4t0.2 0.5q0 0 0 0t0 0q0.1 0.1 0.3 0.3t0.3 0.3q0 0.1 0 0.2t0.1 0.2 0.2 0q0.1-0.4-0.5-1.2-0.3-0.5-0.3-0.6-0.1-0.1-0.1-0.3t-0.1-0.3q0.5 0.2 0.5 0.2-0.1 0.2 0.5 0.9 0 0.1 0.2 0.2t0.2 0.2q0.1 0.1 0.2 0.3t0.2 0.3q0 0-0.1 0l-0.1 0.1q0.1 0 0.2 0.1t0.1 0.1 0.1 0.1 0.1 0.1q0.3 0.3 0.4 0.6 0 0.1 0 0.3t0 0.3q0 0.1 0.1 0.2t0.2 0.2 0.2 0.1 0.3 0.1 0.2 0.1q0 0 0.3 0.2t0.4 0.3q0.2 0.1 0.3 0.1t0.3 0 0.3-0.1z"/>
</svg>
