<svg xmlns="http://www.w3.org/2000/svg" width="32" height="32" viewBox="0 0 32 32">
  <path d="M1.1 18.1l2.2 0.5 1.6-2.6-3.1-0.8c-0.8-0.2-1.6 0.3-1.8 1.1-0.2 0.8 0.3 1.6 1.1 1.8zM29.6 18.5l-7.1 6.4-8.4-6.5c-0.2-0.1-0.3-0.2-0.5-0.3l-1.1-0.3-1.6 2.6 1.8 0.4 9.1 7.1c0.3 0.2 0.6 0.3 0.9 0.3 0.4 0 0.7-0.1 1-0.4l8-7.2c0.6-0.5 0.6-1.5 0.1-2-0.5-0.6-1.5-0.6-2.1-0.1zM13.9 11.5l7.8 5c0.7 0.4 1.5 0.2 2-0.4l8-11.6c0.5-0.7 0.3-1.6-0.4-2s-1.6-0.3-2 0.4l-7.2 10.4-7.9-5c-0.3-0.2-0.7-0.3-1.1-0.2s-0.7 0.3-0.9 0.6l-12 18.8c-0.4 0.7-0.2 1.6 0.4 2 0.2 0.2 0.5 0.2 0.8 0.2 0.5 0 1-0.2 1.2-0.7l11.2-17.6z"/>
</svg>
