<svg xmlns="http://www.w3.org/2000/svg" width="32" height="32" viewBox="0 0 32 32">
  <path d="M23 25.2c-0.6-0.1-0.6-1.7-0.6-1.7s1.7-1.7 2.1-4c1 0 1.7-2.4 0.6-3.3 0-0.9 1.3-7.1-5.1-7.1s-5.2 6.2-5.1 7.1c-1 0.9-0.4 3.3 0.6 3.3 0.4 2.3 2.1 4 2.1 4s0 1.6-0.6 1.7c-1.9 0.3-9 3.4-9 6.8h24c0-3.4-7.1-6.5-9-6.8zM10.8 25.7c1.4-0.8 3.1-1.6 4.4-2.1-0.5-0.7-1-1.7-1.4-2.8-0.5-0.4-0.9-1-1.1-1.6-0.3-0.7-0.3-1.5-0.3-2.2 0.1-0.5 0.2-1 0.4-1.4-0.1-1.5-0.2-4.3 1.6-6.4 0.7-0.8 1.6-1.4 2.7-1.7-0.2-2-1.2-4.4-5.2-4.4-6.4 0-5.2 6.2-5.1 7.1-1 0.9-0.4 3.3 0.6 3.3 0.4 2.3 2.1 4 2.1 4s0 1.6-0.6 1.7c-1.9 0.3-9 3.4-9 6.8h10.3c0.1-0.1 0.3-0.2 0.5-0.3z"/>
</svg>
