<svg xmlns="http://www.w3.org/2000/svg" width="30" height="32" viewBox="0 0 30 32">
  <path d="M6.9 27.4h16v-4.6h-16v4.6zM6.9 16h16v-6.9h-2.9q-0.7 0-1.2-0.5t-0.5-1.2v-2.9h-11.4v11.4zM27.4 17.1q0-0.5-0.3-0.8t-0.8-0.3-0.8 0.3-0.3 0.8 0.3 0.8 0.8 0.3 0.8-0.3 0.3-0.8zM29.7 17.1v7.4q0 0.2-0.2 0.4t-0.4 0.2h-4v2.9q0 0.7-0.5 1.2t-1.2 0.5h-17.1q-0.7 0-1.2-0.5t-0.5-1.2v-2.9h-4q-0.2 0-0.4-0.2t-0.2-0.4v-7.4q0-1.4 1-2.4t2.4-1h1.1v-9.7q0-0.7 0.5-1.2t1.2-0.5h12q0.7 0 1.6 0.4t1.4 0.9l2.7 2.7q0.5 0.5 0.9 1.4t0.4 1.6v4.6h1.1q1.4 0 2.4 1t1 2.4z"/>
</svg>
