<svg xmlns="http://www.w3.org/2000/svg" width="27" height="32" viewBox="0 0 27 32">
  <path d="M18.3 24.6v-1.1q0-0.2-0.2-0.4t-0.4-0.2h-1.7v-8.6q0-0.2-0.2-0.4t-0.4-0.2h-5.7q-0.2 0-0.4 0.2t-0.2 0.4v1.1q0 0.3 0.2 0.4t0.4 0.2h1.7v6.9h-1.7q-0.2 0-0.4 0.2t-0.2 0.4v1.1q0 0.3 0.2 0.4t0.4 0.2h8q0.3 0 0.4-0.2t0.2-0.4zM16 10.9v-3.4q0-0.2-0.2-0.4t-0.4-0.2h-3.4q-0.2 0-0.4 0.2t-0.2 0.4v3.4q0 0.3 0.2 0.4t0.4 0.2h3.4q0.3 0 0.4-0.2t0.2-0.4zM27.4 16q0 3.7-1.8 6.9t-5 5-6.9 1.8-6.9-1.8-5-5-1.8-6.9 1.8-6.9 5-5 6.9-1.8 6.9 1.8 5 5 1.8 6.9z"/>
</svg>
