<svg xmlns="http://www.w3.org/2000/svg" width="30" height="32" viewBox="0 0 30 32">
  <path d="M26 21.7q0-0.7-0.5-1.2l-3.7-3.7q-0.5-0.5-1.2-0.5-0.7 0-1.3 0.6 0.1 0.1 0.3 0.3t0.4 0.4 0.3 0.3 0.2 0.5 0.1 0.5q0 0.7-0.5 1.2t-1.2 0.5q-0.3 0-0.5-0.1t-0.5-0.2-0.3-0.3-0.4-0.4-0.3-0.3q-0.6 0.6-0.6 1.3 0 0.7 0.5 1.2l3.7 3.7q0.5 0.5 1.2 0.5 0.7 0 1.2-0.5l2.6-2.6q0.5-0.5 0.5-1.2zM13.4 9.1q0-0.7-0.5-1.2l-3.7-3.7q-0.5-0.5-1.2-0.5-0.7 0-1.2 0.5l-2.6 2.6q-0.5 0.5-0.5 1.2 0 0.7 0.5 1.2l3.7 3.7q0.5 0.5 1.2 0.5 0.8 0 1.3-0.6-0.1-0.1-0.3-0.3t-0.4-0.4-0.3-0.3-0.2-0.5-0.1-0.5q0-0.7 0.5-1.2t1.2-0.5q0.3 0 0.5 0.1t0.5 0.2 0.3 0.3 0.4 0.4 0.3 0.3q0.6-0.6 0.6-1.3zM29.4 21.7q0 2.1-1.5 3.6l-2.6 2.6q-1.5 1.5-3.6 1.5-2.2 0-3.6-1.5l-3.7-3.7q-1.5-1.5-1.5-3.6 0-2.2 1.6-3.7l-1.6-1.6q-1.5 1.6-3.7 1.6-2.1 0-3.6-1.5l-3.7-3.7q-1.5-1.5-1.5-3.6t1.5-3.6l2.6-2.6q1.5-1.5 3.6-1.5 2.2 0 3.6 1.5l3.7 3.7q1.5 1.5 1.5 3.6 0 2.2-1.6 3.7l1.6 1.6q1.5-1.6 3.7-1.6 2.1 0 3.6 1.5l3.7 3.7q1.5 1.5 1.5 3.6z"/>
</svg>
