<svg xmlns="http://www.w3.org/2000/svg" width="30" height="32" viewBox="0 0 30 32">
  <path d="M11.4 25.7q0 0.1 0 0.4t0 0.5-0.1 0.4-0.2 0.3-0.4 0.1h-5.7q-2.1 0-3.6-1.5t-1.5-3.6v-12.6q0-2.1 1.5-3.6t3.6-1.5h5.7q0.2 0 0.4 0.2t0.2 0.4q0 0.1 0 0.4t0 0.5-0.1 0.4-0.2 0.3-0.4 0.1h-5.7q-1.2 0-2 0.8t-0.8 2v12.6q0 1.2 0.8 2t2 0.8h5.6t0.2 0 0.2 0.1 0.1 0.1 0.1 0.2 0 0.2zM28 16q0 0.5-0.3 0.8l-9.7 9.7q-0.3 0.3-0.8 0.3t-0.8-0.3-0.3-0.8v-5.1h-8q-0.5 0-0.8-0.3t-0.3-0.8v-6.9q0-0.5 0.3-0.8t0.8-0.3h8v-5.1q0-0.5 0.3-0.8t0.8-0.3 0.8 0.3l9.7 9.7q0.3 0.3 0.3 0.8z"/>
</svg>
