<svg xmlns="http://www.w3.org/2000/svg" width="32" height="32" viewBox="0 0 32 32">
  <path d="M29.8 6.4h-27.5c-1.2 0-2.2 1-2.2 2.2v14.7c0 1.2 1 2.2 2.2 2.2h27.5c1.2 0 2.2-1 2.2-2.2v-14.7c0-1.2-1-2.2-2.2-2.2zM17.6 9.6h3.2v3.2h-3.2v-3.2zM22.4 14.4v3.2h-3.2v-3.2h3.2zM12.8 9.6h3.2v3.2h-3.2v-3.2zM17.6 14.4v3.2h-3.2v-3.2h3.2zM8 9.6h3.2v3.2h-3.2v-3.2zM12.8 14.4v3.2h-3.2v-3.2h3.2zM3.2 9.6h3.2v3.2h-3.2v-3.2zM8 14.4v3.2h-3.2v-3.2h3.2zM6.4 22.4h-3.2v-3.2h3.2v3.2zM24 22.4h-16v-3.2h16v3.2zM28.8 22.4h-3.2v-3.2h3.2v3.2zM24 17.6v-3.2h3.2v3.2h-3.2zM28.8 12.8h-6.4v-3.2h6.4v3.2z"/>
</svg>
