<svg xmlns="http://www.w3.org/2000/svg" xmlns:xlink="http://www.w3.org/1999/xlink">
  <symbol id="abrir" viewBox="0 0 34 32">
    <path d="M33.6 17q0 0.6-0.6 1.2l-6 7.1q-0.8 0.9-2.2 1.5t-2.6 0.6h-19.4q-0.6 0-1.1-0.2t-0.5-0.8q0-0.6 0.6-1.2l6-7.1q0.8-0.9 2.2-1.5t2.6-0.6h19.4q0.6 0 1.1 0.2t0.5 0.8zM27.4 10.9v2.9h-14.9q-1.7 0-3.5 0.8t-2.9 2.1l-6.1 7.2q0-0.1 0-0.2t0-0.2v-17.1q0-1.6 1.2-2.8t2.8-1.2h5.7q1.6 0 2.8 1.2t1.2 2.8v0.6h9.7q1.6 0 2.8 1.2t1.2 2.8z" />
  </symbol>
  <symbol id="ajuda" viewBox="0 0 32 32">
    <path d="M15.8 1.3c-8.1 0.1-14.6 6.8-14.5 14.9 0.1 8.1 6.8 14.6 14.9 14.5 8.1-0.1 14.6-6.8 14.5-14.9-0.1-8.1-6.8-14.6-14.9-14.5zM15.8 25h-0.1c-1.3 0-2.1-1-2.1-2.2 0-1.2 0.9-2.1 2.2-2.1l0.1 0c1.3 0 2.2 1 2.1 2.2 0 1.2-0.9 2.1-2.2 2.1zM21 14.5c-0.3 0.4-0.9 0.9-1.8 1.6l-0.9 0.6c-0.5 0.4-0.8 0.7-0.9 1.1-0.1 0.3-0.1 0.4-0.1 0.9l0 0.1h-3.4l0-0.3c0-1.2 0.1-1.9 0.6-2.5 0.8-0.9 2.5-2 2.6-2.1 0.2-0.2 0.5-0.4 0.6-0.6 0.4-0.5 0.5-0.9 0.5-1.3 0-0.5-0.2-1-0.5-1.5-0.3-0.4-0.9-0.6-1.7-0.6-0.8 0-1.4 0.3-1.7 0.8-0.3 0.5-0.5 1.1-0.5 1.7v0.1h-3.5l0-0.2c0.1-2.2 0.9-3.7 2.3-4.6 0.9-0.6 2-0.9 3.3-0.9 1.7 0 3.2 0.4 4.3 1.2 1.2 0.8 1.7 2.1 1.7 3.7 0 0.9-0.3 1.8-0.9 2.5z" />
  </symbol>
  <symbol id="apontando" viewBox="0 0 32 32">
    <path d="M4.6 24q0-0.5-0.3-0.8t-0.8-0.3-0.8 0.3-0.3 0.8 0.3 0.8 0.8 0.3 0.8-0.3 0.3-0.8zM29.7 13.7q0-0.9-0.7-1.6t-1.6-0.7h-10.3q0-0.4 0.3-0.9t0.6-1 0.6-1.2 0.3-1.5q0-1.2-0.8-1.7t-2.1-0.5q-0.4 0-1.6 2.5-0.4 0.8-0.7 1.2-0.7 1.1-2 2.6-1.3 1.4-1.8 1.9-1.2 1-2.5 1h-0.6v11.4h0.6q1.3 0 3 0.6t3.5 1.1 3.2 0.6q3.4 0 3.4-3 0-0.5-0.1-1 0.5-0.3 0.8-0.9t0.3-1.3-0.3-1.2q0.9-0.9 0.9-2.1 0-0.4-0.2-1t-0.4-0.8h5.9q0.9 0 1.6-0.7t0.7-1.6zM32 13.7q0 1.9-1.3 3.2t-3.2 1.4h-3q-0.1 1.1-0.7 2.1 0.1 0.4 0.1 0.8 0 1.8-1.1 3.2 0 2.5-1.5 3.9t-4.1 1.4q-2.4 0-5.7-1.2-2.9-1.1-4-1.1h-5.1q-0.9 0-1.6-0.7t-0.7-1.6v-11.4q0-0.9 0.7-1.6t1.6-0.7h5.1q0.2 0 0.4-0.1t0.4-0.2 0.4-0.3 0.4-0.4 0.4-0.4 0.3-0.4 0.3-0.3q1.2-1.3 1.8-2.3 0.2-0.4 0.6-1.1t0.7-1.3 0.7-1.1 1-0.9 1.2-0.3q2.2 0 3.7 1.2t1.5 3.4q0 1.2-0.4 2.3h6.7q1.9 0 3.2 1.4t1.4 3.2z" />
  </symbol>
  <symbol id="asterisco" viewBox="0 0 30 32">
    <path d="M26.5 18.8q0.8 0.5 1.1 1.4t-0.2 1.7l-1.1 2q-0.5 0.8-1.4 1.1t-1.7-0.2l-4.7-2.7v5.5q0 0.9-0.7 1.6t-1.6 0.7h-2.3q-0.9 0-1.6-0.7t-0.7-1.6v-5.5l-4.7 2.7q-0.8 0.5-1.7 0.2t-1.4-1.1l-1.1-2q-0.5-0.8-0.2-1.7t1.1-1.4l4.8-2.7-4.7-2.7q-0.8-0.5-1.1-1.4t0.2-1.7l1.1-2q0.5-0.8 1.4-1.1t1.7 0.2l4.8 2.7v-5.5q0-0.9 0.7-1.6t1.6-0.7h2.3q0.9 0 1.6 0.7t0.7 1.6v5.5l4.8-2.7q0.8-0.5 1.7-0.2t1.4 1.1l1.1 2q0.5 0.8 0.2 1.7t-1.1 1.4l-4.7 2.8z" />
  </symbol>
  <symbol id="aviso" viewBox="0 0 32 32">
    <path d="M29.9 19.8l-2.8-2.5c-0.8-0.7-0.8-1.9 0-2.6l2.8-2.5c0.8-0.7 0.6-1.4-0.5-1.5l-3.7-0.3c-1.1-0.1-1.6-1-1.3-2l1.9-5.4c0.4-1-0.1-1.4-1-0.8l-4.3 2.7c-0.9 0.6-2.1 0.3-2.6-0.7l-1.6-2.8c-0.5-0.9-1.4-0.9-1.9 0l-1.5 2.5c-0.5 0.9-1.8 1.3-2.7 0.9l-2.6-1.2c-1-0.4-1.7 0.1-1.7 1.1l0.1 2.6c0.1 1.1-0.7 2.2-1.8 2.5l-2.5 0.7c-1 0.3-1.2 1.1-0.4 1.8l2.8 2.5c0.8 0.7 0.8 1.9 0 2.6l-2.8 2.5c-0.8 0.7-0.6 1.4 0.5 1.5l3.4 0.4c1.1 0.1 1.6 1.1 1.3 2.1l-1.7 5.2c-0.3 1 0.1 1.4 1.1 0.9l3.9-2.3c0.9-0.5 2.2-0.2 2.8 0.7l1.6 2.5c0.6 0.9 1.5 0.8 2-0.1l1.4-2.8c0.5-1 1.7-1.3 2.6-0.9l2.8 1.4c1 0.5 1.7 0 1.6-1.1l-0.1-2.6c-0.1-1.1 0.7-2.2 1.8-2.5l2.5-0.7c1-0.3 1.2-1.1 0.4-1.8zM17.6 22.7h-3.2v-3.4h3.2v3.4zM17.6 17.6h-3.2v-8.3h3.2v8.3z" />
  </symbol>

  <symbol id="cadeado" viewBox="0 0 32 32">
    <path d="M26 14h-2v-6c0-4.4-3.6-8-8-8s-8 3.6-8 8v6h-2c-1.1 0-2 0.9-2 2v14c0 1.1 0.9 2 2 2h20c1.1 0 2-0.9 2-2v-14c0-1.1-0.9-2-2-2zM16 26c-1.1 0-2-0.9-2-2s0.9-2 2-2 2 0.9 2 2-0.9 2-2 2zM20 14h-8v-6c0-2.2 1.8-4 4-4s4 1.8 4 4v6z" />
  </symbol>
  <symbol id="cadeado-aberto" viewBox="0 0 32 32">
    <path d="M24 2h-4c-3.3 0-6 2.7-6 6v6h-12.5c-0.8 0-1.5 0.7-1.5 1.5v15c0 0.8 0.7 1.5 1.5 1.5h17c0.8 0 1.5-0.7 1.5-1.5v-15c0-0.8-0.7-1.5-1.5-1.5h-0.5v-6c0-1.1 0.9-2 2-2h4c1.1 0 2 0.9 2 2v6h4v-6c0-3.3-2.7-6-6-6zM12 28h-4l0.9-4.3c-0.5-0.4-0.9-1-0.9-1.6 0-1.1 0.9-2 2-2s2 0.9 2 2c0 0.7-0.3 1.3-0.9 1.7l0.9 4.4z" />
  </symbol>
  <symbol id="cadeado-fechado" viewBox="0 0 32 32">
    <path d="M18.5 14h-0.5v-6c0-3.3-2.7-6-6-6h-4c-3.3 0-6 2.7-6 6v6h-0.5c-0.8 0-1.5 0.7-1.5 1.5v15c0 0.8 0.7 1.5 1.5 1.5h17c0.8 0 1.5-0.7 1.5-1.5v-15c0-0.8-0.7-1.5-1.5-1.5zM12 28h-4l0.9-4.3c-0.5-0.4-0.9-1-0.9-1.6 0-1.1 0.9-2 2-2s2 0.9 2 2c0 0.7-0.3 1.3-0.9 1.7l0.9 4.4zM14 14h-8v-6c0-1.1 0.9-2 2-2h4c1.1 0 2 0.9 2 2v6z" />
  </symbol>
  <symbol id="calendario" viewBox="0 0 32 32">
    <path d="M27.2 4.8h-1.4v3.2h-5.1v-3.2h-9.3v3.2h-5.1v-3.2h-1.4c-1.8 0-3.2 1.4-3.2 3.2v19.2c0 1.8 1.4 3.2 3.2 3.2h22.4c1.8 0 3.2-1.4 3.2-3.2v-19.2c0-1.8-1.4-3.2-3.2-3.2zM27.2 27.2h-22.4v-12.8h22.4v12.8zM9.9 1.6h-2.2v5.4h2.2v-5.4zM24.3 1.6h-2.2v5.4h2.2v-5.4z" />
  </symbol>
  <symbol id="calendario-1" viewBox="0 0 32 32">
    <path d="M12 17c-0.2 0.3-0.4 0.9-0.7 1.1-0.3 0.2-0.5 0.3-0.9 0.3-0.3 0.1-0.7 0.1-1 0.1v1.5h2.5v6h2v-10h-1.6c-0.1 0.4-0.2 0.7-0.4 1zM23 8h2c0.6 0 1-0.4 1-1v-6c0-0.6-0.4-1-1-1h-2c-0.6 0-1 0.4-1 1v6c0 0.6 0.4 1 1 1zM7 8h2c0.6 0 1-0.4 1-1v-6c0-0.6-0.4-1-1-1h-2c-0.6 0-1 0.4-1 1v6c0 0.6 0.4 1 1 1zM30 4h-2v5c0 0.6-0.4 1-1 1h-6c-0.6 0-1-0.4-1-1v-5h-8v5c0 0.6-0.4 1-1 1h-6c-0.6 0-1-0.4-1-1v-5h-2c-1.1 0-2 0.9-2 2v24c0 1.1 0.9 2 2 2h28c1.1 0 2-0.9 2-2v-24c0-1.1-0.9-2-2-2zM30 29c0 0.6-0.4 1-1 1h-26c-0.6 0-1-0.4-1-1v-16c0-0.6 0.4-1 1-1h26c0.6 0 1 0.4 1 1v16zM16 18h5c-0.9 1.2-1.7 2.3-2.3 3.7-0.6 1.4-0.6 2.8-0.7 4.3h2.1c0-0.7-0.2-1.4-0.1-2.2 0.1-0.8 0.4-1.5 0.6-2.3 0.3-0.8 0.6-1.5 1-2.1 0.4-0.7 0.9-1.2 1.4-1.7v-1.7h-7v2z" />
  </symbol>
  <symbol id="calendario-2" viewBox="0 0 32 32">
    <path d="M26 4v2c0 2.2-1.8 4-4 4s-4-1.8-4-4v-2h-4v2c0 2.2-1.8 4-4 4s-4-1.8-4-4v-2h-6v28h32v-28h-6zM10 28h-4v-4h4v4zM10 20h-4v-4h4v4zM18 28h-4v-4h4v4zM18 20h-4v-4h4v4zM22 28v-4h4l-4 4zM26 20h-4v-4h4v4zM8 6v-4c0-1.1 0.9-2 2-2s2 0.9 2 2v4c0 1.1-0.9 2-2 2s-2-0.9-2-2zM20 6v-4c0-1.1 0.9-2 2-2s2 0.9 2 2v4c0 1.1-0.9 2-2 2s-2-0.9-2-2z" />
  </symbol>
  <symbol id="carregando-1" viewBox="0 0 32 32">
    <path d="M32 16c0-2.1-0.5-4.2-1.3-6.1-0.8-1.9-2-3.6-3.5-5.1-1.5-1.4-3.2-2.6-5.2-3.3-1.9-0.7-4-1.1-6-1.1-2 0-4 0.5-5.9 1.3-1.8 0.8-3.5 2-4.9 3.4s-2.5 3.1-3.2 5c-0.7 1.8-1.1 3.8-1 5.8 0 2 0.5 3.9 1.3 5.7 0.8 1.8 1.9 3.4 3.3 4.7 1.4 1.3 3 2.4 4.8 3.1 1.8 0.7 3.7 1 5.6 1 1.9 0 3.8-0.5 5.5-1.2 1.7-0.8 3.3-1.9 4.6-3.2 1.3-1.3 2.3-2.9 3-4.7 0.4-1 0.7-2.1 0.8-3.2 0 0 0.1 0 0.1 0 1.1 0 2-0.9 2-2 0-0.1 0-0.1 0-0.2l0 0zM28.8 21.3c-0.7 1.7-1.8 3.2-3.1 4.4s-2.8 2.2-4.5 2.9c-1.7 0.6-3.4 1-5.2 0.9-1.8 0-3.5-0.4-5.1-1.1-1.6-0.7-3.1-1.7-4.2-3s-2.1-2.7-2.8-4.3c-0.6-1.6-0.9-3.3-0.9-5 0-1.7 0.4-3.4 1.1-4.9 0.7-1.5 1.7-2.9 2.9-4.1s2.6-2.1 4.2-2.7c1.5-0.6 3.2-0.9 4.8-0.8 1.6 0 3.3 0.4 4.7 1.1 1.5 0.7 2.8 1.6 3.9 2.8s2 2.5 2.5 4c0.6 1.5 0.8 3.1 0.8 4.6h0c0 0.1 0 0.1 0 0.2 0 1 0.8 1.9 1.8 2-0.2 1.1-0.5 2.2-1 3.2z" />
  </symbol>
  <symbol id="carregando-2" viewBox="0 0 32 32">
    <path d="M12 4c0 2.2 1.8 4 4 4s4-1.8 4-4c0-2.2-1.8-4-4-4s-4 1.8-4 4zM20.5 7.5c0 2.2 1.8 4 4 4s4-1.8 4-4c0-2.2-1.8-4-4-4s-4 1.8-4 4zM26 16c0 1.1 0.9 2 2 2s2-0.9 2-2c0-1.1-0.9-2-2-2s-2 0.9-2 2zM22.5 24.5c0 1.1 0.9 2 2 2s2-0.9 2-2c0-1.1-0.9-2-2-2s-2 0.9-2 2zM14 28c0 1.1 0.9 2 2 2s2-0.9 2-2c0-1.1-0.9-2-2-2s-2 0.9-2 2zM5.5 24.5c0 0 0 0 0 0 0 1.1 0.9 2 2 2s2-0.9 2-2c0 0 0 0 0 0s0 0 0 0c0-1.1-0.9-2-2-2s-2 0.9-2 2c0 0 0 0 0 0zM4.5 7.5c0 0 0 0 0 0 0 1.7 1.3 3 3 3s3-1.3 3-3c0 0 0 0 0 0s0 0 0 0c0-1.7-1.3-3-3-3s-3 1.3-3 3c0 0 0 0 0 0zM1.8 16c0 1.2 1 2.3 2.3 2.3s2.3-1 2.3-2.2c0-1.2-1-2.2-2.2-2.2s-2.2 1-2.2 2.3z" />
  </symbol>
  <symbol id="casa" viewBox="0 0 30 32">
    <path d="M25.1 17.7v8.6q0 0.5-0.3 0.8t-0.8 0.3h-6.9v-6.9h-4.6v6.9h-6.9q-0.5 0-0.8-0.3t-0.3-0.8v-8.6q0 0 0-0.1t0-0.1l10.3-8.5 10.3 8.5q0 0 0 0.1zM29.1 16.5l-1.1 1.3q-0.1 0.2-0.4 0.2h-0.1q-0.2 0-0.4-0.1l-12.4-10.3-12.4 10.3q-0.2 0.1-0.4 0.1-0.2 0-0.4-0.2l-1.1-1.3q-0.1-0.2-0.1-0.4t0.2-0.4l12.8-10.7q0.6-0.5 1.4-0.5t1.4 0.5l4.4 3.6v-3.5q0-0.2 0.2-0.4t0.4-0.2h3.4q0.3 0 0.4 0.2t0.2 0.4v7.3l3.9 3.3q0.2 0.1 0.2 0.4t-0.1 0.4z" />
  </symbol>
  <symbol id="celular" viewBox="0 0 32 32">
    <path d="M23 0h-14c-1.6 0-3 1.4-3 3v26c0 1.7 1.4 3 3 3h14c1.7 0 3-1.3 3-3v-26c0-1.6-1.3-3-3-3zM12 1.5h8v1h-8v-1zM16 30c-1.1 0-2-0.9-2-2s0.9-2 2-2 2 0.9 2 2-0.9 2-2 2zM24 24h-16v-20h16v20z" />
  </symbol>
  <symbol id="chat-1" viewBox="0 0 32 32">
    <path d="M25.6 4.8h-19.2c-1.8 0-3.2 1.4-3.2 3.2v11.2c0 1.8 1.4 3.2 3.2 3.2h6.4l6.4 4.8v-4.8h6.4c1.8 0 3.2-1.4 3.2-3.2v-11.2c0-1.8-1.4-3.2-3.2-3.2z" />
  </symbol>
  <symbol id="chat-2" viewBox="0 0 32 32">
    <path d="M9.3 19.5v-9.9h-6.1c-1.8 0-3.2 1.4-3.2 3.2v9.6c0 1.8 1.4 3.2 3.2 3.2h1.6v4.8l4.8-4.8h8c1.8 0 3.2-1.4 3.2-3.2v-2.9c-0.1 0-0.2 0-0.3 0h-11.2zM28.8 1.6h-14.4c-1.8 0-3.2 1.4-3.2 3.2v12.8h11.2l4.8 4.8v-4.8h1.6c1.8 0 3.2-1.4 3.2-3.2v-9.6c0-1.8-1.4-3.2-3.2-3.2z" />
  </symbol>
  <symbol id="chat-3" viewBox="0 0 32 32">
    <path d="M32 16q0 3.1-2.1 5.7t-5.8 4.2-8 1.5q-1.2 0-2.6-0.1-3.5 3.1-8.2 4.3-0.9 0.3-2 0.4-0.3 0-0.5-0.2t-0.3-0.5v0q-0.1-0.1 0-0.2t0-0.2 0.1-0.2l0.1-0.2t0.1-0.2 0.1-0.2q0.1-0.1 0.6-0.6t0.6-0.7 0.6-0.7 0.6-0.9 0.5-1.1 0.5-1.4q-2.8-1.6-4.4-3.9t-1.6-5q0-2.3 1.3-4.4t3.4-3.7 5.1-2.4 6.2-0.9q4.4 0 8 1.5t5.8 4.2 2.1 5.7z" />
  </symbol>
  <symbol id="chat-4" viewBox="0 0 32 32">
    <path d="M25.1 13.7q0 2.5-1.7 4.6t-4.6 3.3-6.3 1.2q-1.5 0-3.1-0.3-2.2 1.6-5 2.3-0.6 0.2-1.5 0.3h-0.1q-0.2 0-0.4-0.1t-0.2-0.4q0-0.1 0-0.1t0-0.1 0-0.1l0-0.1t0.1-0.1 0.1-0.1 0.1-0.1 0.1-0.1q0.1-0.1 0.4-0.4t0.5-0.5 0.4-0.5 0.4-0.7 0.4-0.8q-2.2-1.3-3.5-3.2t-1.3-4q0-2.5 1.7-4.6t4.6-3.3 6.3-1.2 6.3 1.2 4.6 3.3 1.7 4.6zM32 18.3q0 2.1-1.3 4t-3.5 3.2q0.2 0.4 0.4 0.8t0.4 0.7 0.4 0.5 0.5 0.5 0.4 0.4q0 0 0.1 0.1t0.1 0.1 0.1 0.1 0.1 0.1l0 0.1t0 0.1 0 0.1 0 0.1q-0.1 0.3-0.2 0.4t-0.4 0.1q-0.9-0.1-1.5-0.3-2.7-0.7-5-2.3-1.6 0.3-3.1 0.3-4.8 0-8.4-2.4 1 0.1 1.6 0.1 2.9 0 5.5-0.8t4.7-2.3q2.2-1.6 3.4-3.8t1.2-4.5q0-1.4-0.4-2.7 2.3 1.3 3.6 3.2t1.3 4.1z" />
  </symbol>
  <symbol id="chave" viewBox="0 0 32 32">
    <path d="M15.8 7.6c0-1-0.4-1.9-1.1-2.6 -0.7-0.7-1.6-1.1-2.6-1.1S10.3 4.3 9.6 5C8.9 5.7 8.5 6.6 8.5 7.6c0 0.6 0.1 1.1 0.3 1.6C8.4 9 7.8 8.8 7.3 8.8c-1 0-1.9 0.4-2.6 1.1 -0.7 0.7-1.1 1.6-1.1 2.6 0 1 0.4 1.9 1.1 2.6 0.7 0.7 1.6 1.1 2.6 1.1 1 0 1.9-0.4 2.6-1.1 0.7-0.7 1.1-1.6 1.1-2.6 0-0.5-0.1-1-0.3-1.6 0.5 0.2 1 0.3 1.6 0.3 1 0 1.9-0.4 2.6-1.1C15.4 9.4 15.8 8.6 15.8 7.6zM32 21c0 0.2-0.3 0.6-1 1.3 -0.6 0.6-1.1 1-1.3 1 -0.1 0-0.3-0.1-0.5-0.3 -0.2-0.2-0.5-0.4-0.7-0.6 -0.3-0.2-0.5-0.5-0.7-0.7 -0.2-0.3-0.4-0.5-0.4-0.5l-1.8 1.8 4.2 4.2c0.4 0.4 0.5 0.8 0.5 1.3 0 0.6-0.2 1.1-0.7 1.5 -0.5 0.4-1 0.7-1.5 0.7 -0.5 0-0.9-0.2-1.3-0.5L13.9 17.2c-2.2 1.6-4.5 2.5-6.9 2.5 -2.1 0-3.7-0.6-5-1.9C0.6 16.4 0 14.8 0 12.7c0-2.1 0.6-4.1 1.8-6 1.2-1.9 2.8-3.5 4.7-4.7C8.4 0.8 10.4 0.2 12.5 0.2s3.7 0.6 5 1.9c1.3 1.3 1.9 3 1.9 5 0 2.4-0.8 4.7-2.5 6.9l6.7 6.7 1.8-1.8c-0.1-0.1-0.2-0.2-0.5-0.4 -0.3-0.2-0.5-0.5-0.7-0.7 -0.2-0.3-0.4-0.5-0.6-0.7 -0.2-0.2-0.3-0.4-0.3-0.5 0-0.2 0.3-0.6 1-1.3 0.6-0.6 1.1-1 1.3-1 0.1 0 0.3 0.1 0.4 0.2 0.1 0.1 0.4 0.4 0.9 0.9 0.5 0.5 1 1 1.6 1.5 0.6 0.5 1.1 1 1.6 1.6 0.5 0.6 1 1.1 1.4 1.5 0.4 0.4 0.6 0.7 0.5 0.7L32 21z"/>
  </symbol>
  <symbol id="clip" viewBox="0 0 32 32">
    <path d="M21.8 10.2l-2-2-10.1 10.1c-1.7 1.7-1.7 4.4 0 6.1s4.4 1.7 6.1 0l12.2-12.2c2.8-2.8 2.8-7.3 0-10.1-2.8-2.8-7.3-2.8-10.1 0l-12.8 12.8c0 0 0 0 0 0-3.9 3.9-3.9 10.2 0 14.2 3.9 3.9 10.2 3.9 14.2 0 0 0 0 0 0 0l0 0 8.7-8.7-2-2-8.7 8.7c0 0 0 0 0 0-2.8 2.8-7.3 2.8-10.1 0-2.8-2.8-2.8-7.3 0-10.1 0 0 0 0 0 0l0 0 12.8-12.8c1.7-1.7 4.4-1.7 6.1 0s1.7 4.4 0 6.1l-12.2 12.2c-0.6 0.6-1.5 0.6-2 0-0.6-0.6-0.6-1.5 0-2l10.2-10.1z" />
  </symbol>
  <symbol id="cone-seguranca" viewBox="0 0 32 32">
    <path d="M16 19.3c3.8 0 7-1.3 7.2-3-0.6-1.6-1.2-3.3-1.8-5-0.4 1.2-2.8 2.1-5.4 2.1s-5-0.9-5.4-2.1c-0.6 1.7-1.2 3.4-1.8 5 0.2 1.7 3.4 3 7.2 3zM16 8.6c1.8 0 3.5-0.6 4-1.4-0.7-1.9-1.3-3.5-1.6-4.5-0.2-0.7-1.3-1-2.3-1s-2.1 0.4-2.3 1c-0.4 1-0.9 2.6-1.6 4.5 0.5 0.9 2.2 1.4 4 1.4zM30 20.9l-6-2.4 0.7 1.9c0 2-4 3.7-8.7 3.7s-8.7-1.6-8.7-3.7l0.7-1.9-6 2.4c-1.7 0.7-1.8 1.9-0.2 2.8l11.3 6.1c1.6 0.9 4.2 0.9 5.8 0l11.3-6.1c1.6-0.9 1.5-2.1-0.2-2.8z" />
  </symbol>
  <symbol id="cracha" viewBox="0 0 32 32">
    <path d="M28.8 3.2h-25.6c-1.8 0-3.2 1.4-3.2 3.2v19.2c0 1.8 1.4 3.2 3.2 3.2h25.6c1.8 0 3.2-1.4 3.2-3.2v-19.2c0-1.8-1.4-3.2-3.2-3.2zM28.8 25.6h-25.6v-19.2h25.6v19.2zM14.4 19.4h-8v2.9h8v-2.9zM14.4 14.6h-8v2.9h8v-2.9zM14.4 9.8h-8v2.9h8v-2.9zM25.4 20c0 0-2.7-0.7-2.7-2.1 0-1.3 1.8-1.9 1.8-4.6 0-2.2-0.7-3.5-2.9-3.5s-2.9 1.3-2.9 3.5c0 2.7 1.8 3.3 1.8 4.6 0 1.4-2.7 2.1-2.7 2.1-0.2 0-0.2 2.2-0.2 2.2h8c0 0 0-2.2-0.2-2.2z" />
  </symbol>
  <symbol id="curtir" viewBox="0 0 27 32">
    <path d="M4.6 24q0-0.5-0.3-0.8t-0.8-0.3-0.8 0.3-0.3 0.8 0.3 0.8 0.8 0.3 0.8-0.3 0.3-0.8zM25.1 13.7q0-0.9-0.7-1.6t-1.6-0.7h-6.3q0-1 0.9-2.8t0.9-2.9q0-1.7-0.6-2.6t-2.3-0.8q-0.5 0.5-0.7 1.5t-0.5 2.2-1.1 2q-0.4 0.4-1.4 1.6-0.1 0.1-0.4 0.5t-0.6 0.7-0.6 0.8-0.7 0.8-0.7 0.6-0.7 0.5-0.6 0.2h-0.6v11.4h0.6q0.2 0 0.6 0.1t0.6 0.1 0.7 0.2 0.6 0.2 0.6 0.2 0.5 0.2q3.8 1.3 6.1 1.3h2.2q3.4 0 3.4-3 0-0.5-0.1-1 0.5-0.3 0.8-0.9t0.3-1.3-0.3-1.2q0.9-0.9 0.9-2.1 0-0.4-0.2-1t-0.4-0.8q0.6 0 1-0.8t0.4-1.4zM27.4 13.7q0 1.6-0.9 2.9 0.2 0.6 0.2 1.2 0 1.4-0.7 2.6 0.1 0.4 0.1 0.8 0 1.8-1.1 3.2 0 2.5-1.5 3.9t-4.1 1.4h-2.3q-1.7 0-3.4-0.4t-3.9-1.2q-2.1-0.7-2.5-0.7h-5.1q-0.9 0-1.6-0.7t-0.7-1.6v-11.4q0-0.9 0.7-1.6t1.6-0.7h4.9q0.6-0.4 2.4-2.8 1-1.3 1.9-2.3 0.4-0.4 0.6-1.5t0.5-2.3 1.1-1.9q0.7-0.7 1.6-0.7 1.5 0 2.7 0.6t1.8 1.8 0.6 3.3q0 1.7-0.9 3.4h3.1q1.9 0 3.2 1.4t1.4 3.2z" />
  </symbol>

  <symbol id="descurtir" viewBox="0 0 27 32">
    <path d="M4.6 8q0-0.5-0.3-0.8t-0.8-0.3-0.8 0.3-0.3 0.8 0.3 0.8 0.8 0.3 0.8-0.3 0.3-0.8zM25.1 18.3q0-0.6-0.4-1.4t-1-0.8q0.3-0.3 0.4-0.8t0.2-1q0-1.2-0.9-2.1 0.3-0.6 0.3-1.2t-0.3-1.3-0.8-0.9q0.1-0.5 0.1-1 0-1.5-0.9-2.2t-2.4-0.7h-2.3q-2.3 0-6.1 1.3-0.1 0-0.5 0.2t-0.6 0.2-0.6 0.2-0.7 0.2-0.6 0.1-0.6 0.1h-0.6v11.4h0.6q0.3 0 0.6 0.2t0.7 0.5 0.7 0.6 0.7 0.8 0.6 0.8 0.6 0.7 0.4 0.5q1 1.2 1.4 1.6 0.7 0.8 1.1 2t0.5 2.2 0.7 1.5q1.7 0 2.3-0.8t0.6-2.6q0-1.1-0.9-2.9t-0.9-2.8h6.3q0.9 0 1.6-0.7t0.7-1.6zM27.4 18.3q0 1.8-1.4 3.2t-3.2 1.4h-3.1q0.9 1.8 0.9 3.4 0 2.1-0.6 3.3-0.6 1.2-1.8 1.8t-2.7 0.6q-0.9 0-1.6-0.7-0.6-0.6-1-1.5t-0.5-1.6-0.3-1.5-0.6-1.1q-0.9-0.9-1.9-2.3-1.8-2.3-2.4-2.8h-4.9q-0.9 0-1.6-0.7t-0.7-1.6v-11.4q0-0.9 0.7-1.6t1.6-0.7h5.1q0.4 0 2.5-0.7 2.3-0.8 4-1.2t3.6-0.4h2q2.5 0 4 1.4t1.5 3.9v0.1q1.1 1.4 1.1 3.2 0 0.4-0.1 0.8 0.7 1.2 0.7 2.6 0 0.6-0.2 1.2 0.9 1.3 0.9 2.9z" />
  </symbol>
  <symbol id="desligar" viewBox="0 0 32 32">
    <path d="M20 4.6v4.2c1.1 0.5 2.2 1.2 3.1 2.1 1.9 1.9 2.9 4.4 2.9 7.1s-1 5.2-2.9 7.1c-1.9 1.9-4.4 2.9-7.1 2.9s-5.2-1-7.1-2.9c-1.9-1.9-2.9-4.4-2.9-7.1s1-5.2 2.9-7.1c0.9-0.9 1.9-1.6 3.1-2.1v-4.2c-5.8 1.7-10 7.1-10 13.4 0 7.7 6.3 14 14 14s14-6.3 14-14c0-6.3-4.2-11.7-10-13.4zM14 0h4v16h-4z" />
  </symbol>
  <symbol id="documento" viewBox="0 0 32 32">
    <path d="M27 0h-24c-1.6 0-3 1.4-3 3v26c0 1.7 1.4 3 3 3h24c1.7 0 3-1.3 3-3v-26c0-1.6-1.3-3-3-3zM26 28h-22v-24h22v24zM8 18h14v2h-14zM8 22h14v2h-14zM10 9c0 1.7 1.3 3 3 3s3-1.3 3-3c0-1.7-1.3-3-3-3s-3 1.3-3 3zM15 12h-4c-1.6 0-3 0.9-3 2v2h10v-2c0-1.1-1.3-2-3-2z" />
  </symbol>
  <symbol id="documento-2" viewBox="0 0 32 32">
    <path d="M27.9 5.9l-3.8-3.8c-1.2-1.2-3.5-2.1-5.1-2.1h-14c-1.6 0-3 1.4-3 3v26c0 1.7 1.4 3 3 3h22c1.7 0 3-1.3 3-3v-18c0-1.6-1-4-2.1-5.1zM20 4.2c0.1 0 0.1 0.1 0.2 0.1 0.6 0.2 1 0.5 1.1 0.6l3.8 3.8c0.1 0.1 0.4 0.5 0.6 1.1 0 0.1 0.1 0.1 0.1 0.2h-5.8v-5.8zM26 28h-20v-24h12v8h8v16zM8 16h16v2h-16zM8 20h16v2h-16zM8 24h16v2h-16z" />
  </symbol>
  <symbol id="download" viewBox="0 0 30 32">
    <path d="M23.9 14.4q0.3 0.7-0.2 1.3l-8 8q-0.3 0.3-0.8 0.3t-0.8-0.3l-8-8q-0.6-0.5-0.2-1.2 0.3-0.7 1.1-0.7h4.6v-8q0-0.5 0.3-0.8t0.8-0.3h4.6q0.5 0 0.8 0.3t0.3 0.8v8h4.6q0.8 0 1.1 0.7zM29.1 18.3q0.3 0 0.4 0.2t0.2 0.4v10.3q0 0.3-0.2 0.4t-0.4 0.2h-28.6q-0.2 0-0.4-0.2t-0.2-0.4v-10.3q0-0.2 0.2-0.4t0.4-0.2h3.4q0.3 0 0.4 0.2t0.2 0.4v6.3h20.6v-6.3q0-0.2 0.2-0.4t0.4-0.2h3.4z" />
  </symbol>

  <symbol id="engrenagem" viewBox="0 0 27 32">
    <path d="M18.3 16q0-1.9-1.3-3.2t-3.2-1.3-3.2 1.3-1.3 3.2 1.3 3.2 3.2 1.3 3.2-1.3 1.3-3.2zM27.4 14.1v4q0 0.2-0.1 0.4t-0.4 0.2l-3.3 0.5q-0.3 1-0.7 1.6 0.6 0.9 1.9 2.5 0.2 0.2 0.2 0.4t-0.2 0.4q-0.5 0.7-1.8 1.9t-1.7 1.3q-0.2 0-0.5-0.2l-2.5-1.9q-0.8 0.4-1.6 0.7-0.3 2.4-0.5 3.3-0.1 0.5-0.6 0.5h-4q-0.2 0-0.4-0.2t-0.2-0.4l-0.5-3.3q-0.9-0.3-1.6-0.7l-2.5 1.9q-0.2 0.2-0.4 0.2-0.2 0-0.4-0.2-2.2-2-2.9-3-0.1-0.2-0.1-0.4 0-0.2 0.1-0.4 0.3-0.4 0.9-1.2t1-1.3q-0.5-0.9-0.7-1.8l-3.3-0.5q-0.2 0-0.4-0.2t-0.1-0.4v-4q0-0.2 0.1-0.4t0.3-0.2l3.3-0.5q0.3-0.8 0.7-1.6-0.7-1-1.9-2.5-0.2-0.2-0.2-0.4 0-0.2 0.2-0.4 0.5-0.6 1.8-1.9t1.7-1.3q0.2 0 0.5 0.2l2.5 1.9q0.8-0.4 1.6-0.7 0.3-2.4 0.5-3.3 0.1-0.5 0.6-0.5h4q0.3 0 0.4 0.2t0.2 0.4l0.5 3.3q0.9 0.3 1.6 0.7l2.5-1.9q0.2-0.2 0.4-0.2 0.2 0 0.4 0.2 2.3 2.1 2.9 3 0.1 0.1 0.1 0.4 0 0.2-0.1 0.4-0.3 0.4-0.9 1.2t-1 1.3q0.5 0.9 0.7 1.8l3.3 0.5q0.2 0 0.4 0.2t0.1 0.4z" />
  </symbol>
  <symbol id="envelope" viewBox="0 0 32 32">
    <path d="M2.6 8.5c0.8 0.4 11.6 6.2 12 6.4 0.4 0.2 0.9 0.3 1.4 0.3 0.5 0 1-0.1 1.5-0.3 0.4-0.2 11.2-6 12-6.4 0.8-0.4 1.5-1.7 0.1-1.7h-27.1c-1.4 0-0.7 1.3 0.1 1.7zM29.8 11.7c-0.9 0.5-11.8 6.2-12.3 6.4s-0.9 0.3-1.4 0.3c-0.5 0-0.9 0-1.4-0.3s-11.4-6-12.3-6.4c-0.6-0.3-0.6 0.1-0.6 0.4s0 11.7 0 11.7c0 0.7 0.9 1.5 1.6 1.5h25.6c0.7 0 1.6-0.9 1.6-1.5 0 0 0-11.4 0-11.7 0-0.3 0-0.7-0.6-0.4z" />
  </symbol>
  <symbol id="erro" viewBox="0 0 27 32">
    <path d="M20.5 20q0-0.5-0.3-0.8l-3.2-3.2 3.2-3.2q0.3-0.3 0.3-0.8 0-0.5-0.3-0.8l-1.6-1.6q-0.3-0.3-0.8-0.3-0.5 0-0.8 0.3l-3.2 3.2-3.2-3.2q-0.3-0.3-0.8-0.3-0.5 0-0.8 0.3l-1.6 1.6q-0.3 0.3-0.3 0.8 0 0.5 0.3 0.8l3.2 3.2-3.2 3.2q-0.3 0.3-0.3 0.8 0 0.5 0.3 0.8l1.6 1.6q0.3 0.3 0.8 0.3 0.5 0 0.8-0.3l3.2-3.2 3.2 3.2q0.3 0.3 0.8 0.3 0.5 0 0.8-0.3l1.6-1.6q0.3-0.3 0.3-0.8zM27.4 16q0 3.7-1.8 6.9t-5 5-6.9 1.8-6.9-1.8-5-5-1.8-6.9 1.8-6.9 5-5 6.9-1.8 6.9 1.8 5 5 1.8 6.9z" />
  </symbol>
  <symbol id="erro-1" viewBox="0 0 32 32">
    <path d="M25.6 3.2h-19.2c-1.8 0-3.2 1.4-3.2 3.2v19.2c0 1.8 1.4 3.2 3.2 3.2h19.2c1.8 0 3.2-1.4 3.2-3.2v-19.2c0-1.8-1.4-3.2-3.2-3.2zM20.9 23.7l-4.9-4.9-4.9 4.9-2.8-2.8 4.9-4.9-4.9-4.9 2.8-2.8 4.9 4.9 4.9-4.9 2.8 2.8-4.9 4.9 4.9 4.9-2.8 2.8z" />
  </symbol>
  <symbol id="estrela" viewBox="0 0 32 32">
    <path d="M32 12.4l-11.1-1.6-4.9-10-4.9 10-11.1 1.6 8 7.8-1.9 11 9.9-5.2 9.9 5.2-1.9-11 8-7.8z" />
  </symbol>
  <symbol id="estrela-metade" viewBox="0 0 32 32">
    <path d="M32 12.4l-11.1-1.6-4.9-10-4.9 10-11.1 1.6 8 7.8-1.9 11 9.9-5.2 9.9 5.2-1.9-11 8-7.8zM16 23.5l0 0 0-17.8 3.5 7.1 7.8 1.1-5.6 5.5 1.3 7.8-7-3.7z" />
  </symbol>
  <symbol id="estrela-vazia" viewBox="0 0 32 32">
    <path d="M32 12.4l-11.1-1.6-4.9-10-4.9 10-11.1 1.6 8 7.8-1.9 11 9.9-5.2 9.9 5.2-1.9-11 8-7.8zM16 23.5l-7 3.7 1.3-7.8-5.6-5.5 7.8-1.1 3.5-7.1 3.5 7.1 7.8 1.1-5.6 5.5 1.3 7.8-7-3.7z" />
  </symbol>

  <symbol id="facebook" viewBox="0 0 32 32">
    <path d="M26.3 2.2h-20.6c-1.9 0-3.4 1.5-3.4 3.4v20.6c0 1.9 1.5 3.4 3.4 3.4h10.4v-9.9h-3.3v-4.3h3.3v-2.2c0-3.3 2.5-5.9 5.6-5.9h3v4.9h-2.7c-0.7 0-0.9 0.4-0.9 1v2.2h3.6v4.3h-3.6v9.9h5.2c1.9 0 3.4-1.5 3.4-3.4v-20.6c0-1.9-1.5-3.4-3.4-3.4z" />
  </symbol>
  <symbol id="facebook2" viewBox="0 0 14 32">
    <path d="M10 7.3q-0.9 0-1.1 0.3t-0.2 1.2v1.6h3.9q0.3 0 0.5 0.2 0.2 0.2 0.2 0.5l-0.2 3.6q0 0.3-0.2 0.5t-0.5 0.2h-3.6v13.7q0 0.3-0.2 0.5t-0.5 0.2h-4.5q-0.3 0-0.5-0.2t-0.2-0.5v-13.7h-2.2q-0.3 0-0.5-0.2t-0.2-0.5v-3.6q0-0.3 0.2-0.5t0.5-0.2h2.2v-1.8q0-3.2 1.6-4.7t4.8-1.5q2.1 0 4 0.5 0.3 0.1 0.4 0.3t0.1 0.5l-0.5 3.5q0 0.3-0.3 0.5-0.2 0.2-0.5 0.1-1.4-0.3-2.4-0.3z"/>
  </symbol>
  <symbol id="fechar" viewBox="0 0 25 32">
    <path d="M23.2 23.6q0 0.7-0.5 1.2l-2.4 2.4q-0.5 0.5-1.2 0.5t-1.2-0.5l-5.2-5.2-5.2 5.3q-0.5 0.5-1.2 0.5t-1.2-0.5l-2.4-2.4q-0.5-0.5-0.5-1.2t0.5-1.2l5.3-5.2-5.2-5.2q-0.5-0.5-0.5-1.2t0.5-1.2l2.4-2.4q0.5-0.5 1.2-0.5t1.2 0.5l5.3 5.3 5.3-5.2q0.5-0.5 1.2-0.5t1.2 0.5l2.4 2.4q0.5 0.5 0.5 1.2t-0.5 1.2l-5.2 5.3 5.3 5.3q0.5 0.5 0.5 1.2z"/>
  </symbol>
  <symbol id="ferramentas" viewBox="0 0 32 32">
    <path d="M5 11c1.5-1.2 2.7-0.4 4.4 1.6 0.2 0.2 0.4 0 0.6-0.2 0.1-0.1 2.3-2.1 2.4-2.2 0.1-0.1 0.2-0.3 0.1-0.5s-0.8-1-1.2-1.5c-2.9-3.8 7.9-6.3 6.3-6.4-0.8 0-4.2-0.1-4.7 0-2.1 0.2-4.6 2.1-5.9 3-1.7 1.2-2.3 1.8-2.4 1.9-0.5 0.4-0.1 1.4-0.9 2.2-0.9 0.8-1.5 0.2-2 0.7-0.3 0.2-1 0.8-1.2 1-0.2 0.2-0.2 0.5 0 0.8 0 0 2 2.2 2.2 2.4 0.2 0.2 0.6 0.4 0.9 0.1 0.3-0.2 1-0.9 1.1-1 0.1-0.1-0.1-1.4 0.6-1.9zM14.1 11.9c-0.2-0.2-0.4-0.2-0.6 0l-2.3 2c-0.2 0.2-0.2 0.5 0 0.6l13.3 15.1c0.3 0.4 0.8 0.4 1.2 0.1l1.6-1.3c0.4-0.3 0.4-0.9 0.1-1.2l-13.1-15.3zM31.8 5.4c-0.1-0.8-0.5-0.6-0.7-0.3-0.2 0.3-1.2 1.8-1.5 2.4-0.4 0.6-1.3 1.9-3.1 0.7-1.8-1.3-1.2-2.2-0.9-2.8 0.3-0.6 1.3-2.3 1.5-2.5 0.1-0.2 0-0.8-0.6-0.6-0.6 0.3-4 1.6-4.5 3.6-0.5 2 0.4 3.8-1.4 5.6l-2.1 2.2 2.2 2.5 2.6-2.5c0.6-0.6 2-1.2 3.2-1 2.6 0.6 4-0.4 4.9-2 0.8-1.5 0.6-4.5 0.5-5.3zM4.4 27.3c-0.3 0.3-0.3 0.9 0 1.2l1.5 1.5c0.3 0.3 0.9 0.2 1.2-0.1l7.9-7.7-2.4-2.7-8.2 7.9z" />
  </symbol>
  <symbol id="figura" viewBox="0 0 34 32">
    <path d="M11.4 10.3q0 1.4-1 2.4t-2.4 1-2.4-1-1-2.4 1-2.4 2.4-1 2.4 1 1 2.4zM29.7 17.1v8h-25.1v-3.4l5.7-5.7 2.9 2.9 9.1-9.1zM31.4 4.6h-28.6q-0.2 0-0.4 0.2t-0.2 0.4v21.7q0 0.2 0.2 0.4t0.4 0.2h28.6q0.2 0 0.4-0.2t0.2-0.4v-21.7q0-0.2-0.2-0.4t-0.4-0.2zM34.3 5.1v21.7q0 1.2-0.8 2t-2 0.8h-28.6q-1.2 0-2-0.8t-0.8-2v-21.7q0-1.2 0.8-2t2-0.8h28.6q1.2 0 2 0.8t0.8 2z" />
  </symbol>
  <symbol id="filtro" viewBox="0 0 25 32">
    <path d="M25.1 5.3q0.3 0.7-0.2 1.3l-8.8 8.8v13.3q0 0.8-0.7 1.1-0.2 0.1-0.4 0.1-0.5 0-0.8-0.3l-4.6-4.6q-0.3-0.3-0.3-0.8v-8.7l-8.8-8.8q-0.6-0.5-0.2-1.2 0.3-0.7 1.1-0.7h22.9q0.8 0 1.1 0.7z" />
  </symbol>
  <symbol id="fluxograma" viewBox="0 0 32 32">
    <path d="M32 22.3v5.7q0 0.7-0.5 1.2t-1.2 0.5h-5.7q-0.7 0-1.2-0.5t-0.5-1.2v-5.7q0-0.7 0.5-1.2t1.2-0.5h1.7v-3.4h-9.1v3.4h1.7q0.7 0 1.2 0.5t0.5 1.2v5.7q0 0.7-0.5 1.2t-1.2 0.5h-5.7q-0.7 0-1.2-0.5t-0.5-1.2v-5.7q0-0.7 0.5-1.2t1.2-0.5h1.7v-3.4h-9.1v3.4h1.7q0.7 0 1.2 0.5t0.5 1.2v5.7q0 0.7-0.5 1.2t-1.2 0.5h-5.7q-0.7 0-1.2-0.5t-0.5-1.2v-5.7q0-0.7 0.5-1.2t1.2-0.5h1.7v-3.4q0-0.9 0.7-1.6t1.6-0.7h9.1v-3.4h-1.7q-0.7 0-1.2-0.5t-0.5-1.2v-5.7q0-0.7 0.5-1.2t1.2-0.5h5.7q0.7 0 1.2 0.5t0.5 1.2v5.7q0 0.7-0.5 1.2t-1.2 0.5h-1.7v3.4h9.1q0.9 0 1.6 0.7t0.7 1.6v3.4h1.7q0.7 0 1.2 0.5t0.5 1.2z" />
  </symbol>
  <symbol id="foto" viewBox="0 0 34 32">
    <path d="M17.1 12q2.1 0 3.6 1.5t1.5 3.6-1.5 3.6-3.6 1.5-3.6-1.5-1.5-3.6 1.5-3.6 3.6-1.5zM29.7 4.6q1.9 0 3.2 1.3t1.3 3.2v16q0 1.9-1.3 3.2t-3.2 1.3h-25.1q-1.9 0-3.2-1.3t-1.3-3.2v-16q0-1.9 1.3-3.2t3.2-1.3h4l0.9-2.4q0.3-0.9 1.2-1.5t1.8-0.6h9.1q0.9 0 1.8 0.6t1.2 1.5l0.9 2.4h4zM17.1 25.1q3.3 0 5.7-2.3t2.3-5.7-2.3-5.7-5.7-2.3-5.7 2.3-2.3 5.7 2.3 5.7 5.7 2.3z" />
  </symbol>

  <symbol id="globo" viewBox="0 0 27 32">
    <path d="M21.3 9.7q0.2-0.1 0.4-0.4v0q0 0-0.2 0.2t-0.2 0.2q0 0-0.1 0zM21.2 9.7q0 0 0-0.1t0-0.1q0.1 0 0.2 0.1-0.1 0.1-0.1 0zM13 6.4q-0.3 0-0.5-0.1 0 0 0.1 0t0.2 0 0.2 0zM13.8 5.8q0.1-0.1 0.2 0t0.1 0.1q-0.1-0.1-0.4-0.1zM13.7 5.9l-0.1 0q0-0.1-0.1-0.1t-0.1 0q0 0 0.4 0.1-0.1 0.1-0.1 0.1zM11.8 4.4v0q0 0 0.1 0.1t0.1 0.1zM10 5.1q0 0 0 0l0 0h0zM16.7 23.8v0zM13.7 2.3q3.7 0 6.9 1.8t5 5 1.8 6.9-1.8 6.9-5 5-6.9 1.8-6.9-1.8-5-5-1.8-6.9 1.8-6.9 5-5 6.9-1.8zM22.1 24.5l0.1-0.1q-0.1-0.2-0.5-0.2 0-0.2-0.2-0.5t-0.5-0.3q0-0.1-0.2-0.2t-0.3-0.1q-0.2 0-0.5 0.2-0.1 0.1-0.1 0.1-0.1-0.1-0.2-0.2t-0.3-0.2q0 0-0.1 0t-0.2 0q0 0-0.1-0.1t-0.1-0.1-0.1-0.1-0.1 0-0.1 0-0.2 0.1-0.1 0.3 0 0.3q-0.1-0.1 0-0.4t0-0.4q-0.1-0.1-0.4 0t-0.4 0.3q0 0-0.2 0.1t-0.2 0.1q-0.1 0.1-0.2 0.3t-0.1 0.2q0 0 0-0.1t0-0.1q-0.2 0-0.3-0.1 0.1 0.3 0.1 0.3l-0.1 0q0 0.1 0.1 0.3t0.1 0.2q0 0.1 0 0.2t0 0.2q0 0 0.1 0.2 0.1 0.3 0 0.6 0 0-0.1 0.1t-0.1 0.2l0 0.1 0 0q0 0 0 0 0 0.1-0.2 0.2t-0.2 0.2q-0.3 0.4-0.2 0.7 0.1 0.1 0.2 0.2 0.1 0 0.1 0 0 0.2-0.2 0.5 0 0 0.1 0.1-0.3 0-0.2 0.3 3.6-0.6 6.3-3.2h-0.1zM12.1 21.2q0.3-0.1 0.5 0.3t0.4 0.4q0.7 0.4 1.1 0.2 0 0.2 0.3 0.5 0.1 0.1 0.1 0.2t0.1 0.2q0.1 0.1 0.3 0.3t0.3 0.3q0.1-0.1 0.2-0.2 0.2 0.6 0.4 0.6 0.1 0 0.1-0.1 0 0 0 0.1t0 0.1q0.1-0.3 0.1-0.5l0.1-0.1q0.1-0.1 0.1-0.1-0.1-0.1-0.2 0.1-0.5 0.3-0.9-0.4 0-0.1-0.1-0.1t-0.1-0.2 0-0.2 0.1-0.1q0.2 0 0.2 0t0-0.1-0.1-0.1q0-0.1 0-0.2t0-0.2l-0.1-0.1q-0.1-0.1-0.2-0.2t-0.1-0.2q-0.1 0.2-0.3 0.2t-0.3-0.2q0 0 0 0.1t0 0.1q-0.2 0-0.3 0 0-0.1 0.1-0.4t0.1-0.4q0-0.1 0.1-0.2t0.1-0.3 0.1-0.2-0.1-0.2-0.3 0q-0.4 0-0.5 0.4 0 0.1-0.1 0.2t-0.1 0.2-0.2 0.1q-0.1 0.1-0.5 0t-0.5-0.1q-0.2-0.1-0.4-0.5t-0.2-0.7q0-0.2 0.1-0.5t0.1-0.5-0.1-0.5q0.1 0 0.2-0.2t0.2-0.2q0 0 0.1 0h0.1t0.1 0 0.1-0.1q0 0-0.1-0.1-0.1-0.1-0.1-0.1 0.1 0.1 0.3 0t0.3 0q0 0 0.4 0 0.3 0.2 0.4 0 0 0 0-0.2t0-0.3q0.1 0.5 0.6 0.2 0.1 0.1 0.3 0.1t0.3 0.1q0.1 0 0.1 0.1t0.1 0.1 0.1 0 0.2-0.1q0.2 0.3 0.2 0.4 0.2 0.8 0.4 0.9 0.1 0 0.2 0t0.1-0.2 0-0.3 0-0.2l0-0.7q-0.3-0.1-0.4-0.2t0-0.4 0.3-0.3q0 0 0.3-0.1t0.4-0.2q0.4-0.3 0.3-0.7 0.2 0 0.2-0.2l-0.1-0.1q-0.1-0.1-0.1-0.1t-0.1 0q0.2-0.1 0-0.3 0.1-0.1 0.1-0.2t0.2-0.2q0.2 0.3 0.4 0.1 0.1-0.2 0-0.3 0.1-0.1 0.4-0.2t0.4-0.2q0.1 0 0.1 0t0-0.1v-0.1t0-0.2 0.1-0.1q0.1-0.1 0.3-0.2t0.3-0.1l0.3-0.2q0.1-0.1 0-0.1 0.3 0 0.6-0.2 0.2-0.2-0.1-0.4 0-0.1-0.1-0.2t-0.3-0.1q0.1 0 0.2 0t0.2 0q0.3-0.2-0.1-0.3-0.4-0.1-0.8 0.2-0.1 0-0.2 0.2t-0.3 0.2q0.3-0.3 0.1-0.4 0.1 0 0.4-0.2t0.3-0.2q0.1 0 0.2 0t0.2 0q1.3-0.4 1.6 0 0.1-0.2 0.2-0.3t0.2-0.2 0.3-0.1q0.4-0.1 0.4-0.2l0-0.4q-0.2 0-0.3-0.1t-0.1-0.4l-0.1 0.1q0-0.1-0.1-0.1t-0.1 0-0.2 0-0.1 0q-0.2 0-0.3-0.3t-0.3-0.3q0.2 0 0.2-0.1 0-0.1-0.2-0.1 0-0.1 0-0.1t-0.2 0q0-0.2 0-0.2-0.1 0-0.2-0.2t-0.1-0.2q0 0-0.1 0t-0.1 0.1l-0.1 0.1t-0.1 0.1l0 0q-0.2-0.1-0.4 0.2-0.2 0-0.3 0 0.3-0.1 0-0.2-0.2-0.1-0.4 0 0.2-0.1 0.2-0.2t-0.2-0.3q0 0 0.1 0t0.1 0q0-0.1-0.2-0.2t-0.3-0.2-0.2-0.1q-0.1-0.1-0.6-0.2t-0.6 0q-0.1 0.1-0.1 0.1t0 0.2 0.1 0.2q0.1 0.4 0.1 0.5 0 0.1-0.2 0.1t-0.1 0.2q0 0.1 0.2 0.2t0.2 0.2q0.1 0.2-0.1 0.4-0.1 0.1-0.3 0.2t-0.2 0.2q-0.1 0.1-0.1 0.2t0 0.2q0 0 0 0t0 0q0 0.2 0.2 0.4 0.1 0.1-0.3 0.3-0.4 0.2-0.4 0.1 0-0.1-0.1-0.3t-0.2-0.2-0.1-0.3-0.2-0.4q-0.1-0.1-0.3-0.1t-0.3 0.1q0-0.2-0.9-0.5-0.3-0.1-1-0.1 0.1 0 0-0.3-0.1-0.3-0.4-0.2-0.1-0.4-0.1-0.6 0-0.1 0.2-0.2t0.2-0.3q0-0.1 0.3-0.1t0.3-0.1q0-0.1 0-0.1t-0.2-0.1q0.9 0.1 1.1-0.3 0.1-0.2 0.1-0.2 0 0 0 0t0 0q0.2-0.1 0.1-0.3 0.3-0.1 0.5-0.1 0.1 0 0.2 0.1t0.2 0.1q0.3 0.1 0.4-0.2t-0.2-0.4q0.1 0.1 0.1-0.1 0-0.2-0.1-0.3-0.1 0-0.1 0t-0.1 0-0.1 0q0 0-0.1 0 0 0 0 0h-0.1q-0.1 0-0.1 0.1v0q0 0.1 0.1 0.1l0.1 0 0.1 0q0 0 0 0t0 0q0 0.1 0.1 0.1 0 0-0.2 0.1t-0.3 0.2q0 0-0.1 0t-0.1 0q0 0-0.1 0t-0.1-0.2-0.1-0.2-0.1-0.2-0.1-0.1q-0.2 0-0.3 0.3 0.1-0.2-0.2-0.3t-0.4-0.1q0.4-0.3-0.2-0.5l0 0q-0.5 0.1-0.8 0.1 0 0.1 0.1 0.2 0 0.1 0.1 0.2 0 0 0 0t0 0q0 0 0 0t0 0q0.1 0 0.2 0t0.2 0q0.1 0 0.1 0l0.1 0.1t0.1 0.1 0 0.1q0 0-0.2 0.1t-0.2 0.1-0.1 0.1q-0.1 0.1 0 0.3t0 0.3q-0.1-0.1-0.2-0.3t-0.1-0.3q0.1 0.2-0.5 0.1l-0.1 0q-0.1 0-0.3 0t-0.3 0q-0.1 0-0.5-0.1 0.1-0.3 0.1-0.4 0.1 0 0.1 0l-0.1-0.1q-0.1 0-0.4 0.2 0 0.1 0.1 0.2t0.2 0.2q-0.4-0.1-0.5 0 0 0-0.2 0-0.4 0-0.4 0.1 0 0.1 0.2 0.2 0 0.2 0 0.2-0.5-0.4-0.5-0.4-3.1 1.5-4.9 4.4 0 0 0 0.2t0.1 0.2 0.2-0.1q0.2 0.2 0.1 0.4 0 0 0.6 0.4 1 0.7 0.4 0.9v-0.1t0-0.1q-0.2 0-0.3-0.1-0.1 0.1 0 0.4t0.2 0.3q-0.1 0-0.2 0.3t0 0.7 0 0.5l0 0q-0.1 0.2 0.1 0.7t0.4 0.4q-0.1 0.3 0.1 0.4 0 0.1 0 0.1t0.1 0.2 0.1 0.1l0.2 0.2q0.5 0.2 0.7 0.5 0.1 0.1 0.2 0.4t0.3 0.5q0 0.1 0.2 0.4t0.2 0.5q0 0 0 0t0 0q0.1 0.1 0.3 0.3t0.3 0.3q0 0.1 0 0.2t0.1 0.2 0.2 0q0.1-0.4-0.5-1.2-0.3-0.5-0.3-0.6-0.1-0.1-0.1-0.3t-0.1-0.3q0.5 0.2 0.5 0.2-0.1 0.2 0.5 0.9 0 0.1 0.2 0.2t0.2 0.2q0.1 0.1 0.2 0.3t0.2 0.3q0 0-0.1 0l-0.1 0.1q0.1 0 0.2 0.1t0.1 0.1 0.1 0.1 0.1 0.1q0.3 0.3 0.4 0.6 0 0.1 0 0.3t0 0.3q0 0.1 0.1 0.2t0.2 0.2 0.2 0.1 0.3 0.1 0.2 0.1q0 0 0.3 0.2t0.4 0.3q0.2 0.1 0.3 0.1t0.3 0 0.3-0.1z" />
  </symbol>
  <symbol id="google+" viewBox="0 0 32 32">
    <path d="M3.2 8.9c0 2.4 0.8 4.1 2.4 5.1 1.3 0.8 2.8 1 3.6 1 0.2 0 0.3 0 0.4 0 0 0-0.2 1.6 0.9 3.2l-0.1 0c-2.1 0-8.8 0.4-8.8 6 0 5.6 6.2 5.9 7.4 5.9 0.1 0 0.2 0 0.2 0 0 0 0.1 0 0.3 0 0.8 0 2.9-0.1 4.8-1 2.5-1.2 3.7-3.3 3.7-6.2 0-2.8-1.9-4.5-3.3-5.7-0.9-0.7-1.6-1.4-1.6-2 0-0.6 0.5-1.1 1.2-1.7 1.1-1 2.1-2.4 2.1-5 0-2.3-0.3-3.9-2.2-4.9 0.2-0.1 0.9-0.2 1.2-0.2 1-0.1 2.5-0.3 2.5-1.1v-0.2h-7.4c-0.1 0-7.4 0.3-7.4 7zM15.1 23.4c0.1 2.3-1.8 3.9-4.7 4.1-2.9 0.2-5.4-1.1-5.5-3.4-0.1-1.1 0.4-2.1 1.3-3 0.9-0.9 2.2-1.4 3.6-1.5 0.2 0 0.3 0 0.5 0 2.7 0 4.6 1.6 4.7 3.7zM13.1 7.4c0.7 2.5-0.4 5.2-2.1 5.7-0.2 0.1-0.4 0.1-0.6 0.1-1.6 0-3.2-1.6-3.8-3.8-0.3-1.2-0.3-2.3 0.1-3.4 0.4-1 1-1.7 1.9-2 0.2-0.1 0.4-0.1 0.6-0.1 1.9 0 3.2 0.8 3.9 3.5zM25.5 12.9v-4.8h-3v4.8h-4.8v3h4.8v4.8h3v-4.8h4.8v-3h-4.8z" />
  </symbol>
  <symbol id="grafico-1" viewBox="0 0 32 32">
    <path d="M1.1 18.1l2.2 0.5 1.6-2.6-3.1-0.8c-0.8-0.2-1.6 0.3-1.8 1.1-0.2 0.8 0.3 1.6 1.1 1.8zM29.6 18.5l-7.1 6.4-8.4-6.5c-0.2-0.1-0.3-0.2-0.5-0.3l-1.1-0.3-1.6 2.6 1.8 0.4 9.1 7.1c0.3 0.2 0.6 0.3 0.9 0.3 0.4 0 0.7-0.1 1-0.4l8-7.2c0.6-0.5 0.6-1.5 0.1-2-0.5-0.6-1.5-0.6-2.1-0.1zM13.9 11.5l7.8 5c0.7 0.4 1.5 0.2 2-0.4l8-11.6c0.5-0.7 0.3-1.6-0.4-2s-1.6-0.3-2 0.4l-7.2 10.4-7.9-5c-0.3-0.2-0.7-0.3-1.1-0.2s-0.7 0.3-0.9 0.6l-12 18.8c-0.4 0.7-0.2 1.6 0.4 2 0.2 0.2 0.5 0.2 0.8 0.2 0.5 0 1-0.2 1.2-0.7l11.2-17.6z" />
  </symbol>
  <symbol id="grafico-2" viewBox="0 0 32 32">
    <path d="M14.3 3.5c-6.2 0.7-11.1 5.6-11.8 11.8h11.8v-11.8zM17.7 3.5v13.5c0 0.9-0.7 1.6-1.6 1.6h-13.5c0.9 6.6 6.5 11.7 13.4 11.7 7.5 0 13.5-6 13.5-13.5 0-6.8-5.1-12.5-11.7-13.4z" />
  </symbol>
  <symbol id="grafico-3" viewBox="0 0 32 32">
    <path d="M27.2 1.6h-3.5c-0.9 0-1.3 0.7-1.3 1.6v27.2h6.4v-27.2c0-0.9-0.7-1.6-1.6-1.6zM17.6 11.2h-3.5c-0.9 0-1.3 0.7-1.3 1.6v17.6h6.4v-17.6c0-0.9-0.7-1.6-1.6-1.6zM8 20.8h-3.5c-0.9 0-1.3 0.7-1.3 1.6v8h6.4v-8c0-0.9-0.7-1.6-1.6-1.6z" />
  </symbol>
  <symbol id="grupo" viewBox="0 0 32 32">
    <path d="M23 25.2c-0.6-0.1-0.6-1.7-0.6-1.7s1.7-1.7 2.1-4c1 0 1.7-2.4 0.6-3.3 0-0.9 1.3-7.1-5.1-7.1s-5.2 6.2-5.1 7.1c-1 0.9-0.4 3.3 0.6 3.3 0.4 2.3 2.1 4 2.1 4s0 1.6-0.6 1.7c-1.9 0.3-9 3.4-9 6.8h24c0-3.4-7.1-6.5-9-6.8zM10.8 25.7c1.4-0.8 3.1-1.6 4.4-2.1-0.5-0.7-1-1.7-1.4-2.8-0.5-0.4-0.9-1-1.1-1.6-0.3-0.7-0.3-1.5-0.3-2.2 0.1-0.5 0.2-1 0.4-1.4-0.1-1.5-0.2-4.3 1.6-6.4 0.7-0.8 1.6-1.4 2.7-1.7-0.2-2-1.2-4.4-5.2-4.4-6.4 0-5.2 6.2-5.1 7.1-1 0.9-0.4 3.3 0.6 3.3 0.4 2.3 2.1 4 2.1 4s0 1.6-0.6 1.7c-1.9 0.3-9 3.4-9 6.8h10.3c0.1-0.1 0.3-0.2 0.5-0.3z" />
  </symbol>

  <symbol id="impressora" viewBox="0 0 30 32">
    <path d="M6.9 27.4h16v-4.6h-16v4.6zM6.9 16h16v-6.9h-2.9q-0.7 0-1.2-0.5t-0.5-1.2v-2.9h-11.4v11.4zM27.4 17.1q0-0.5-0.3-0.8t-0.8-0.3-0.8 0.3-0.3 0.8 0.3 0.8 0.8 0.3 0.8-0.3 0.3-0.8zM29.7 17.1v7.4q0 0.2-0.2 0.4t-0.4 0.2h-4v2.9q0 0.7-0.5 1.2t-1.2 0.5h-17.1q-0.7 0-1.2-0.5t-0.5-1.2v-2.9h-4q-0.2 0-0.4-0.2t-0.2-0.4v-7.4q0-1.4 1-2.4t2.4-1h1.1v-9.7q0-0.7 0.5-1.2t1.2-0.5h12q0.7 0 1.6 0.4t1.4 0.9l2.7 2.7q0.5 0.5 0.9 1.4t0.4 1.6v4.6h1.1q1.4 0 2.4 1t1 2.4z"/>
  </symbol>
  <symbol id="info" viewBox="0 0 27 32">
    <path d="M18.3 24.6v-1.1q0-0.2-0.2-0.4t-0.4-0.2h-1.7v-8.6q0-0.2-0.2-0.4t-0.4-0.2h-5.7q-0.2 0-0.4 0.2t-0.2 0.4v1.1q0 0.3 0.2 0.4t0.4 0.2h1.7v6.9h-1.7q-0.2 0-0.4 0.2t-0.2 0.4v1.1q0 0.3 0.2 0.4t0.4 0.2h8q0.3 0 0.4-0.2t0.2-0.4zM16 10.9v-3.4q0-0.2-0.2-0.4t-0.4-0.2h-3.4q-0.2 0-0.4 0.2t-0.2 0.4v3.4q0 0.3 0.2 0.4t0.4 0.2h3.4q0.3 0 0.4-0.2t0.2-0.4zM27.4 16q0 3.7-1.8 6.9t-5 5-6.9 1.8-6.9-1.8-5-5-1.8-6.9 1.8-6.9 5-5 6.9-1.8 6.9 1.8 5 5 1.8 6.9z" />
  </symbol>

  <symbol id="janela-up" viewBox="0 0 32 32">
    <path d="M28.8 1.6h-25.6c-1.8 0-3.2 1.4-3.2 3.2v19.2c0 1.8 1.4 3.2 3.2 3.2h6.4v-3.1h-6.4v-14.8h25.7v14.8h-6.4v3.1h6.4c1.8 0 3.2-1.4 3.2-3.2v-19.2c0-1.8-1.4-3.2-3.2-3.2zM4.2 6.9c-0.7 0-1.2-0.5-1.2-1.2s0.5-1.2 1.2-1.2c0.7 0 1.2 0.5 1.2 1.2s-0.5 1.2-1.2 1.2zM7.4 6.9c-0.7 0-1.2-0.5-1.2-1.2s0.5-1.2 1.2-1.2c0.7 0 1.2 0.5 1.2 1.2s-0.5 1.2-1.2 1.2zM28.8 6.8h-19.3v-2h19.3v2zM15.9 13.1l-7.8 7.7h4.8v9.6h5.9v-9.6h4.8l-7.8-7.7z"/>
  </symbol>
  <symbol id="janela" viewBox="0 0 32 32">
    <path d="M28.8 3.2h-25.6c-1.8 0-3.2 1.4-3.2 3.2v19.2c0 1.8 1.4 3.2 3.2 3.2h25.6c1.8 0 3.2-1.4 3.2-3.2v-19.2c0-1.8-1.4-3.2-3.2-3.2zM7.4 6.2c0.7 0 1.2 0.5 1.2 1.2 0 0.6-0.5 1.2-1.2 1.2s-1.2-0.5-1.2-1.2c0-0.6 0.5-1.2 1.2-1.2zM3 7.4c0-0.6 0.5-1.2 1.2-1.2s1.2 0.5 1.2 1.2c0 0.6-0.5 1.2-1.2 1.2s-1.2-0.5-1.2-1.2zM28.8 25.6h-25.7v-14.7h25.7v14.7zM28.8 8.3h-19.2v-1.9h19.2v1.9z"/>
  </symbol>

  <symbol id="lampada" viewBox="0 0 32 32">
    <path d="M11.5 30.7c1.3 0.8 2.7 1.4 4.5 1.3 1.8 0 3.2-0.5 4.5-1.3v-3.3h-9v3.3zM20.3 25.4c0-7 7.4-9.2 6.9-16.1-0.3-4.4-3.3-9.3-11.2-9.3s-10.8 4.9-11.2 9.3c-0.6 6.9 6.9 9.2 6.9 16.1h8.6zM8.2 9.5c0.3-4.2 3.2-6.3 7.8-6.3s7.4 2.1 7.8 6.3c0.2 2.3-1.1 3.8-2.9 6.3-1.3 1.8-2.8 4-3.6 6.8h-2.6c-0.7-2.8-2.3-5-3.6-6.8-1.8-2.5-3.1-4-2.9-6.3z"/>
  </symbol>
  <symbol id="lapis" viewBox="0 0 32 32">
    <path d="M12 20l4-2 14-14-2-2-14 14-2 4zM9 27.1c-1-2.1-2.1-3.1-4.1-4.1l3.1-8.5 4-2.4 12-12h-6l-12 12-6 20 20-6 12-12v-6l-12 12-2.4 4z"/>
  </symbol>
  <symbol id="link" viewBox="0 0 30 32">
    <path d="M26 21.7q0-0.7-0.5-1.2l-3.7-3.7q-0.5-0.5-1.2-0.5-0.7 0-1.3 0.6 0.1 0.1 0.3 0.3t0.4 0.4 0.3 0.3 0.2 0.5 0.1 0.5q0 0.7-0.5 1.2t-1.2 0.5q-0.3 0-0.5-0.1t-0.5-0.2-0.3-0.3-0.4-0.4-0.3-0.3q-0.6 0.6-0.6 1.3 0 0.7 0.5 1.2l3.7 3.7q0.5 0.5 1.2 0.5 0.7 0 1.2-0.5l2.6-2.6q0.5-0.5 0.5-1.2zM13.4 9.1q0-0.7-0.5-1.2l-3.7-3.7q-0.5-0.5-1.2-0.5-0.7 0-1.2 0.5l-2.6 2.6q-0.5 0.5-0.5 1.2 0 0.7 0.5 1.2l3.7 3.7q0.5 0.5 1.2 0.5 0.8 0 1.3-0.6-0.1-0.1-0.3-0.3t-0.4-0.4-0.3-0.3-0.2-0.5-0.1-0.5q0-0.7 0.5-1.2t1.2-0.5q0.3 0 0.5 0.1t0.5 0.2 0.3 0.3 0.4 0.4 0.3 0.3q0.6-0.6 0.6-1.3zM29.4 21.7q0 2.1-1.5 3.6l-2.6 2.6q-1.5 1.5-3.6 1.5-2.2 0-3.6-1.5l-3.7-3.7q-1.5-1.5-1.5-3.6 0-2.2 1.6-3.7l-1.6-1.6q-1.5 1.6-3.7 1.6-2.1 0-3.6-1.5l-3.7-3.7q-1.5-1.5-1.5-3.6t1.5-3.6l2.6-2.6q1.5-1.5 3.6-1.5 2.2 0 3.6 1.5l3.7 3.7q1.5 1.5 1.5 3.6 0 2.2-1.6 3.7l1.6 1.6q1.5-1.6 3.7-1.6 2.1 0 3.6 1.5l3.7 3.7q1.5 1.5 1.5 3.6z"/>
  </symbol>
  <symbol id="livro" viewBox="0 0 32 32">
    <path d="M26.6 8.2l-14.4-7.4c-2-1-5.9 1-7 2.7-0.5 0.8-0.5 1.4-0.5 1.7l0.2 16.8c0 0.4 0.5 0.8 0.8 1.1 0.8 0.5 12.9 8 13.2 8.3 0.2 0.1 0.4 0.2 0.6 0.2 0.2 0 0.4 0 0.5-0.1 0.4-0.2 0.6-0.5 0.6-0.9v-17.6c0-0.4-0.2-0.7-0.6-0.9l-13.1-7.3c0.1-0.3 0.7-0.9 1.8-1.5 1.1-0.6 2-0.4 2.2-0.3 0 0 12.6 6.7 12.9 6.9 0.4 0.2 0.4 0.2 0.4 0.6 0 0.3 0 16.7 0 16.7 0 0.8 0.8 1.2 1.5 1.2 0.6 0 1.3-0.6 1.3-1.2v-18c0-0.4-0.2-0.7-0.6-0.9z"/>
  </symbol>
  <symbol id="lixo-1" viewBox="0 0 32 32">
    <path d="M25 4h-18c-1.7 0-3 1.3-3 3v1h24v-1c0-1.7-1.3-3-3-3zM19.8 2l0.4 3.2h-8.4l0.4-3.2h7.5zM20 0h-8c-0.8 0-1.6 0.7-1.7 1.5l-0.6 4.2c-0.1 0.8 0.5 1.5 1.3 1.5h10c0.8 0 1.4-0.7 1.3-1.5l-0.6-4.2c-0.1-0.8-0.9-1.5-1.7-1.5v0zM25.5 10h-19c-1.1 0-1.9 0.9-1.8 2l1.6 18c0.1 1.1 1.1 2 2.2 2h15c1.1 0 2.1-0.9 2.2-2l1.6-18c0.1-1.1-0.7-2-1.8-2zM12 28h-3l-1-14h4v14zM18 28h-4v-14h4v14zM23 28h-3v-14h4l-1 14z"/>
  </symbol>
  <symbol id="lixo-2" viewBox="0 0 32 32">
    <path d="M5.4 12.7l1.8 15.5c0.1 0.7 3.7 3.2 8.8 3.2 5.2 0 8.7-2.4 8.8-3.2l1.8-15.5c-2.7 1.5-6.7 2.2-10.6 2.2s-7.9-0.7-10.6-2.2zM21.1 3.1l-1.4-1.5c-0.5-0.8-1.1-0.9-2.2-0.9h-2.9c-1.1 0-1.7 0.1-2.2 0.9l-1.4 1.5c-4.1 0.7-7.1 2.6-7.1 4v0.3c0 2.5 5.4 4.5 12.2 4.5s12.2-2 12.2-4.5v-0.3c0-1.4-3-3.3-7.1-4zM19.3 6.6l-2-2.1h-2.6l-2 2.1h-2.7c0 0 3-3.6 3.4-4 0.3-0.4 0.6-0.5 1-0.5h3.3c0.4 0 0.7 0.1 1 0.5 0.4 0.5 3.4 4 3.4 4h-2.7z"/>
  </symbol>
  <symbol id="local" viewBox="0 0 32 32">
    <path d="M16 0c-5.5 0-10 4.5-10 10 0 10 10 22 10 22s10-12 10-22c0-5.5-4.5-10-10-10zM16 16c-3.3 0-6-2.7-6-6s2.7-6 6-6 6 2.7 6 6-2.7 6-6 6z"/>
  </symbol>
  <symbol id="lupa" viewBox="0 0 32 32">
    <path d="M22 13.7c0-2.3-0.8-4.3-2.4-6 -1.6-1.7-3.6-2.5-6-2.4 -2.4 0.1-4.4 0.9-6 2.4 -1.6 1.5-2.4 3.5-2.4 6 0 2.5 0.8 4.5 2.4 6 1.6 1.5 3.6 2.4 6 2.4 2.4 0.1 4.4-0.7 6-2.4C21.2 18 22 16 22 13.7zM31.6 29.3c0 0.6-0.2 1.2-0.7 1.7 -0.5 0.5-1.1 0.7-1.7 0.7 -0.7 0-1.3-0.2-1.7-0.7l-6.4-6.4c-2.2 1.5-4.7 2.3-7.5 2.3 -1.8 0-3.5-0.4-5.2-1.1C6.8 25.1 5.4 24.1 4.2 22.9c-1.2-1.2-2.1-2.6-2.8-4.2s-1.1-3.3-1.1-5.2c0-1.8 0.4-3.5 1.1-5.2s1.6-3 2.8-4.2C5.4 3 6.8 2.1 8.4 1.4c1.6-0.7 3.3-1.1 5.2-1.1s3.5 0.4 5.2 1.1 3 1.6 4.2 2.8c1.2 1.2 2.1 2.6 2.8 4.2 0.7 1.6 1.1 3.3 1.1 5.2 0 2.7-0.8 5.2-2.3 7.5l6.4 6.4c0.5 0.5 0.7 1.1 0.7 1.7L31.6 29.3z"/>
  </symbol>

  <symbol id="mais" viewBox="0 0 25 32">
    <path d="M25.1 13.1v3.4q0 0.7-0.5 1.2t-1.2 0.5h-7.4v7.4q0 0.7-0.5 1.2t-1.2 0.5h-3.4q-0.7 0-1.2-0.5t-0.5-1.2v-7.4h-7.4q-0.7 0-1.2-0.5t-0.5-1.2v-3.4q0-0.7 0.5-1.2t1.2-0.5h7.4v-7.4q0-0.7 0.5-1.2t1.2-0.5h3.4q0.7 0 1.2 0.5t0.5 1.2v7.4h7.4q0.7 0 1.2 0.5t0.5 1.2z"/>
  </symbol>
  <symbol id="megafone" viewBox="0 0 32 32">
    <path d="M27.6 11.2c-2.5-5.9-6.6-10.4-8.7-9.5-3.5 1.4 2.1 8.3-15.1 15.3-1.5 0.6-1.9 3-1.2 4.5 0.6 1.4 2.7 2.9 4.1 2.3 0.3-0.1 1.2-0.4 1.2-0.4 1.1 1.4 2.2 0.6 2.6 1.5 0.5 1.1 1.5 3.5 1.9 4.3 0.4 0.8 1.1 1.5 1.7 1.3 0.6-0.2 2.5-1 3.3-1.2s0.9-1 0.7-1.5c-0.2-0.6-1.3-0.7-1.5-1.4-0.3-0.7-1.2-2.8-1.5-3.5-0.4-0.9 0.4-1.6 1.6-1.8 7.8-0.8 9.3 4 12 2.9 2.1-0.8 1.6-6.8-0.9-12.7zM26.7 20.8c-0.5 0.2-3.5-2.2-5.5-6.8-2-4.6-1.7-8.8-1.3-9 0.5-0.2 3.5 2.7 5.4 7.3 2 4.6 1.8 8.3 1.3 8.5z"/>
  </symbol>
  <symbol id="menos" viewBox="0 0 25 32">
    <path d="M25.1 13.1v3.4q0 0.7-0.5 1.2t-1.2 0.5h-21.7q-0.7 0-1.2-0.5t-0.5-1.2v-3.4q0-0.7 0.5-1.2t1.2-0.5h21.7q0.7 0 1.2 0.5t0.5 1.2z"/>
  </symbol>
  <symbol id="menu" viewBox="0 0 32 32">
      <path d="M32 4.6c0 1.1-0.9 2-2 2H2c-1.1 0-2-0.9-2-2V2c0-1.1 0.9-2 2-2h28c1.1 0 2 0.9 2 2V4.6z"/>
      <path d="M32 17.3c0 1.1-0.9 2-2 2H2c-1.1 0-2-0.9-2-2v-2.6c0-1.1 0.9-2 2-2h28c1.1 0 2 0.9 2 2V17.3z"/>
      <path d="M32 30c0 1.1-0.9 2-2 2H2c-1.1 0-2-0.9-2-2v-2.6c0-1.1 0.9-2 2-2h28c1.1 0 2 0.9 2 2V30z"/>
  </symbol>
  <symbol id="monitor" viewBox="0 0 34 32">
    <path d="M32 17.7v-14.9q0-0.2-0.2-0.4t-0.4-0.2h-28.6q-0.2 0-0.4 0.2t-0.2 0.4v14.9q0 0.2 0.2 0.4t0.4 0.2h28.6q0.2 0 0.4-0.2t0.2-0.4zM34.3 2.9v19.4q0 1.2-0.8 2t-2 0.8h-9.7q0 0.7 0.3 1.4t0.6 1.3 0.3 0.8q0 0.5-0.3 0.8t-0.8 0.3h-9.1q-0.5 0-0.8-0.3t-0.3-0.8q0-0.2 0.3-0.8t0.6-1.2 0.3-1.4h-9.7q-1.2 0-2-0.8t-0.8-2v-19.4q0-1.2 0.8-2t2-0.8h28.6q1.2 0 2 0.8t0.8 2z"/>
  </symbol>

  <symbol id="novo" viewBox="0 0 32 32">
    <path d="M27.9 5.9l-3.8-3.8c-1.2-1.2-3.5-2.1-5.1-2.1h-14c-1.6 0-3 1.4-3 3v26c0 1.7 1.4 3 3 3h22c1.7 0 3-1.3 3-3v-18c0-1.6-1-4-2.1-5.1zM20 4.2c0.1 0 0.1 0.1 0.2 0.1 0.6 0.2 1 0.5 1.1 0.6l3.8 3.8c0.1 0.1 0.4 0.5 0.6 1.1 0 0.1 0.1 0.1 0.1 0.2h-5.8v-5.8zM26 28h-20v-24h12v8h8v16z"/>
  </symbol>

  <symbol id="ok-tique" viewBox="0 0 32 32">
    <path d="M29.8 10.1q0 0.7-0.5 1.2l-15.4 15.4q-0.5 0.5-1.2 0.5t-1.2-0.5l-8.9-8.9q-0.5-0.5-0.5-1.2t0.5-1.2l2.4-2.4q0.5-0.5 1.2-0.5t1.2 0.5l5.3 5.3 11.7-11.7q0.5-0.5 1.2-0.5t1.2 0.5l2.4 2.4q0.5 0.5 0.5 1.2z"/>
  </symbol>
  <symbol id="olho" viewBox="0 0 32 32">
    <path d="M29.7 17.1q-2.7-4.2-6.8-6.3 1.1 1.9 1.1 4 0 3.3-2.3 5.7t-5.7 2.3-5.7-2.3-2.3-5.7q0-2.2 1.1-4-4.1 2.1-6.8 6.3 2.4 3.7 6 5.8t7.8 2.2 7.8-2.2 6-5.8zM16.9 10.3q0-0.4-0.2-0.6t-0.6-0.2q-2.2 0-3.8 1.6t-1.6 3.8q0 0.4 0.3 0.6t0.6 0.3 0.6-0.2 0.3-0.6q0-1.5 1.1-2.6t2.6-1.1q0.4 0 0.6-0.2t0.3-0.6zM32 17.1q0 0.6-0.4 1.2-2.5 4.1-6.7 6.6t-8.9 2.5-8.9-2.5-6.7-6.6q-0.4-0.6-0.4-1.2t0.4-1.2q2.5-4.1 6.7-6.6t8.9-2.5 8.9 2.5 6.7 6.6q0.4 0.6 0.4 1.2z"/>
  </symbol>
  <symbol id="olho-fechado" viewBox="0 0 32 32">
    <path d="M9.9 23.8l1.4-2.5q-1.6-1.1-2.4-2.8t-0.9-3.6q0-2.2 1.1-4-4.1 2.1-6.8 6.3 3 4.6 7.6 6.7zM16.9 10.3q0-0.4-0.2-0.6t-0.6-0.2q-2.2 0-3.8 1.6t-1.6 3.8q0 0.4 0.3 0.6t0.6 0.3 0.6-0.2 0.3-0.6q0-1.5 1.1-2.6t2.6-1.1q0.4 0 0.6-0.2t0.3-0.6zM23.3 6.9q0 0.1 0 0.2-1.9 3.4-5.6 10.1t-5.6 10.1l-0.9 1.6q-0.2 0.3-0.5 0.3-0.2 0-2.4-1.2-0.3-0.2-0.3-0.5 0-0.2 0.8-1.6-2.6-1.2-4.7-3.1t-3.7-4.4q-0.4-0.6-0.4-1.2t0.4-1.2q2.7-4.2 6.8-6.6t8.9-2.4q1.6 0 3.2 0.3l1-1.7q0.2-0.3 0.5-0.3 0.1 0 0.3 0.1t0.6 0.3 0.6 0.3 0.6 0.3 0.3 0.2q0.3 0.2 0.3 0.5zM24 14.9q0 2.5-1.4 4.5t-3.7 2.9l5-9q0.1 0.8 0.1 1.5zM32 17.1q0 0.6-0.4 1.2-0.7 1.1-1.9 2.6-2.7 3.1-6.2 4.8t-7.5 1.7l1.3-2.4q3.8-0.3 7-2.4t5.4-5.5q-2.1-3.2-5-5.2l1.1-2q1.7 1.1 3.3 2.7t2.6 3.3q0.4 0.6 0.4 1.2z"/>
  </symbol>
  <symbol id="ordenar-baixo" viewBox="0 0 18 32">
    <path d="M18.3 19.4q0 0.5-0.3 0.8l-8 8q-0.3 0.3-0.8 0.3t-0.8-0.3l-8-8q-0.3-0.3-0.3-0.8t0.3-0.8 0.8-0.3h16q0.5 0 0.8 0.3t0.3 0.8z"/>
  </symbol>
  <symbol id="ordenar-cima" viewBox="0 0 18 32">
    <path d="M18.3 12.6q0 0.5-0.3 0.8t-0.8 0.3h-16q-0.5 0-0.8-0.3t-0.3-0.8 0.3-0.8l8-8q0.3-0.3 0.8-0.3t0.8 0.3l8 8q0.3 0.3 0.3 0.8z"/>
  </symbol>
  <symbol id="ordenar" viewBox="0 0 18 32">
    <path d="M18.3 19.4q0 0.5-0.3 0.8l-8 8q-0.3 0.3-0.8 0.3t-0.8-0.3l-8-8q-0.3-0.3-0.3-0.8t0.3-0.8 0.8-0.3h16q0.5 0 0.8 0.3t0.3 0.8zM18.3 12.6q0 0.5-0.3 0.8t-0.8 0.3h-16q-0.5 0-0.8-0.3t-0.3-0.8 0.3-0.8l8-8q0.3-0.3 0.8-0.3t0.8 0.3l8 8q0.3 0.3 0.3 0.8z"/>
  </symbol>

  <symbol id="pasta" viewBox="0 0 30 32">
    <path d="M29.7 10.9v12.6q0 1.6-1.2 2.8t-2.8 1.2h-21.7q-1.6 0-2.8-1.2t-1.2-2.8v-17.1q0-1.6 1.2-2.8t2.8-1.2h5.7q1.6 0 2.8 1.2t1.2 2.8v0.6h12q1.6 0 2.8 1.2t1.2 2.8z"/>
  </symbol>
  <symbol id="pdf" viewBox="0 0 32 32">
    <path d="M26.3 18.4c-0.4-0.4-1.4-0.6-2.8-0.7-1 0-2.1 0.1-3.4 0.2-0.6-0.3-1.1-0.7-1.6-1.1-1.2-1.1-2.2-2.7-2.8-4.4 0-0.2 0.1-0.3 0.1-0.4 0 0 0.7-3.8 0.5-5.1 0-0.2 0-0.2-0.1-0.4l-0.1-0.2c-0.2-0.4-0.5-0.9-1.1-0.8l-0.3 0c-0.6 0-1.1 0.3-1.3 0.8-0.4 1.5 0 3.8 0.8 6.7l-0.2 0.5c-0.5 1.3-1.2 2.7-1.8 3.9l-0.1 0.2c-0.6 1.3-1.2 2.3-1.7 3.2l-0.5 0.3c0 0-1 0.5-1.2 0.6-1.9 1.1-3.1 2.4-3.3 3.4-0.1 0.3 0 0.7 0.3 0.9l0.5 0.3c0.2 0.1 0.5 0.2 0.7 0.2 1.3 0 2.9-1.6 5-5.3 2.4-0.8 5.2-1.5 7.6-1.8 1.9 1 4.1 1.8 5.6 1.8 0.3 0 0.5 0 0.7-0.1 0.3-0.1 0.5-0.2 0.7-0.4 0.3-0.4 0.3-1 0.3-1.6 0-0.2-0.2-0.4-0.3-0.5zM6.6 25.4c0.2-0.7 1.2-2 2.6-3.1 0.1-0.1 0.3-0.3 0.5-0.5-1.5 2.3-2.5 3.3-3.1 3.6zM15 6.2c0.4 0 0.7 1.1 0.7 2.1s-0.2 1.7-0.5 2.2c-0.2-0.8-0.4-2-0.4-2.8 0 0 0-1.5 0.2-1.5zM12.5 19.9c0.3-0.5 0.6-1.1 0.9-1.7 0.8-1.4 1.2-2.6 1.6-3.5 0.7 1.3 1.6 2.4 2.7 3.3 0.1 0.1 0.3 0.2 0.4 0.3-2.1 0.4-4 0.9-5.6 1.6zM25.9 19.8c-0.1 0.1-0.5 0.1-0.7 0.1-0.8 0-1.7-0.4-3.1-0.9 0.5 0 1-0.1 1.4-0.1 0.8 0 1 0 1.8 0.2s0.8 0.6 0.6 0.7zM28.2 6.2l-4.5-4.5c-1-1-2.9-1.8-4.3-1.8h-15c-1.4 0-2.5 1.1-2.5 2.5v27c0 1.4 1.1 2.5 2.5 2.5h23c1.4 0 2.5-1.1 2.5-2.5v-19c0-1.4-0.8-3.3-1.8-4.3zM26.8 7.6c0.1 0.1 0.2 0.2 0.3 0.4h-5.1v-5.1c0.1 0.1 0.3 0.2 0.4 0.3l4.5 4.5zM28 29.5c0 0.3-0.2 0.5-0.5 0.5h-23c-0.3 0-0.5-0.2-0.5-0.5v-27c0-0.3 0.2-0.5 0.5-0.5h15c0.2 0 0.3 0 0.5 0.1v7.9h7.9c0 0.2 0.1 0.3 0.1 0.5v19z"/>
  </symbol>
  <symbol id="pessoa" viewBox="0 0 32 32">
    <path d="M25.1 24.2c-4.1-1.5-5.5-2.7-5.5-5.5 0-1.7 1.3-1.1 1.8-4.1 0.2-1.3 1.4 0 1.6-2.8 0-1.2-0.6-1.4-0.6-1.4s0.3-1.7 0.4-2.9C22.9 5.9 21.8 1.7 16.1 1.7c-5.8 0-6.8 4.1-6.7 5.8 0.1 1.3 0.4 2.9 0.4 2.9S9.1 10.7 9.1 11.8c0.2 2.8 1.4 1.6 1.6 2.8 0.5 3.1 1.8 2.4 1.8 4.1 0 2.7-1.4 4-5.5 5.5 -4.2 1.5-6.8 3.1-6.8 4.1s0 3.6 0 3.6h31.7c0 0 0-2.5 0-3.6s-2.7-2.6-6.8-4.1H25.1z"/>
  </symbol>
  <symbol id="pessoa-1" viewBox="0 0 32 32">
    <path d="M10 6c0 3.3 2.7 6 6 6s6-2.7 6-6c0-3.3-2.7-6-6-6s-6 2.7-6 6zM24 14h-1.1l-6.2 12.6 2.3-11.6-3-3-3 3 2.3 11.6-6.2-12.6h-1.1c-4 0-4 2.7-4 6v10h24v-10c0-3.3 0-6-4-6z"/>
  </symbol>
  <symbol id="pessoa-2" viewBox="0 0 32 32">
    <path d="M8 10c0 4.4 3.6 8 8 8s8-3.6 8-8c0-4.4-3.6-8-8-8s-8 3.6-8 8zM24 20h-16c-4.4 0-8 3.6-8 8v2h32v-2c0-4.4-3.6-8-8-8z"/>
  </symbol>
  <symbol id="prancheta" viewBox="0 0 32 32">
    <path d="M25 3.2l-1.9 4.8h-14.1l-1.9-4.8c-1.2 0-2.2 1-2.2 2.2v24.3c0 1.2 1 2.2 2.2 2.2h17.9c1.2 0 2.2-1 2.2-2.2v-24.3c0-1.2-1-2.2-2.2-2.2zM21.8 6.4l1.4-3.2h-3.5l-1.2-3.2h-5.1l-1.2 3.2h-3.5l1.4 3.2h11.5z"/>
  </symbol>
  <symbol id="proibido" viewBox="0 0 32 32">
    <path d="M27.3 27.3c-6.2 6.2-16.4 6.2-22.6 0-6.2-6.2-6.2-16.4 0-22.6 6.2-6.2 16.4-6.2 22.6 0 6.2 6.2 6.2 16.4 0 22.6zM7.5 24.5c4.2 4.2 10.7 4.6 15.4 1.3l-16.7-16.7c-3.3 4.7-2.9 11.2 1.3 15.4zM24.5 7.5c-4.2-4.2-10.7-4.6-15.4-1.3l16.7 16.7c3.3-4.7 2.9-11.2-1.3-15.4z"/>
  </symbol>

  <symbol id="relogio" viewBox="0 0 32 32">
    <path d="M16 0c-8.8 0-16 7.2-16 16s7.2 16 16 16 16-7.2 16-16c0-8.8-7.2-16-16-16zM16 28c-6.6 0-12-5.4-12-12s5.4-12 12-12 12 5.4 12 12-5.4 12-12 12zM23 14h-5v-7c0-0.6-0.4-1-1-1h-2c-0.6 0-1 0.4-1 1v10c0 0.6 0.4 1 1 1h8c0.6 0 1-0.4 1-1v-2c0-0.6-0.4-1-1-1z"/>
  </symbol>

  <symbol id="sair" viewBox="0 0 30 32">
    <path d="M11.4 25.7q0 0.1 0 0.4t0 0.5-0.1 0.4-0.2 0.3-0.4 0.1h-5.7q-2.1 0-3.6-1.5t-1.5-3.6v-12.6q0-2.1 1.5-3.6t3.6-1.5h5.7q0.2 0 0.4 0.2t0.2 0.4q0 0.1 0 0.4t0 0.5-0.1 0.4-0.2 0.3-0.4 0.1h-5.7q-1.2 0-2 0.8t-0.8 2v12.6q0 1.2 0.8 2t2 0.8h5.6t0.2 0 0.2 0.1 0.1 0.1 0.1 0.2 0 0.2zM28 16q0 0.5-0.3 0.8l-9.7 9.7q-0.3 0.3-0.8 0.3t-0.8-0.3-0.3-0.8v-5.1h-8q-0.5 0-0.8-0.3t-0.3-0.8v-6.9q0-0.5 0.3-0.8t0.8-0.3h8v-5.1q0-0.5 0.3-0.8t0.8-0.3 0.8 0.3l9.7 9.7q0.3 0.3 0.3 0.8z"/>
  </symbol>
  <symbol id="salvar" viewBox="0 0 32 32">
    <path d="M24.3 3.2h-17.9c-1.8 0-3.2 1.4-3.2 3.2v19.2c0 1.8 1.4 3.2 3.2 3.2h19.2c1.8 0 3.2-1.4 3.2-3.2v-17.4l-4.5-5zM22.4 12.8c0 0.9-0.7 1.6-1.6 1.6h-9.6c-0.9 0-1.6-0.7-1.6-1.6v-8h12.8v8zM20.8 6.4h-3.2v6.4h3.2v-6.4z"/>
  </symbol>
  <symbol id="seta-dupla" viewBox="0 0 18 32">
    <path d="M10.6 17.1q0 0.2-0.2 0.4l-8.3 8.3q-0.2 0.2-0.4 0.2t-0.4-0.2l-0.9-0.9q-0.2-0.2-0.2-0.4t0.2-0.4l7-7-7-7q-0.2-0.2-0.2-0.4t0.2-0.4l0.9-0.9q0.2-0.2 0.4-0.2t0.4 0.2l8.3 8.3q0.2 0.2 0.2 0.4zM17.5 17.1q0 0.2-0.2 0.4l-8.3 8.3q-0.2 0.2-0.4 0.2t-0.4-0.2l-0.9-0.9q-0.2-0.2-0.2-0.4t0.2-0.4l7-7-7-7q-0.2-0.2-0.2-0.4t0.2-0.4l0.9-0.9q0.2-0.2 0.4-0.2t0.4 0.2l8.3 8.3q0.2 0.2 0.2 0.4z"/>
  </symbol>
  <symbol id="seta-fina" viewBox="0 0 32 32">
    <path d="M12.2 21.5c-0.4 0.4-0.4 1.1 0 1.6 0.4 0.4 1.1 0.4 1.6 0l6.1-6.3c0.4-0.4 0.4-1.1 0-1.6l-6.1-6.3c-0.4-0.4-1.1-0.4-1.5 0s-0.4 1.1 0 1.6l5 5.5-5 5.5z"/>
  </symbol>
  <symbol id="seta" viewBox="0 0 11 32">
    <path d="M10.3 16q0 0.5-0.3 0.8l-8 8q-0.3 0.3-0.8 0.3t-0.8-0.3-0.3-0.8v-16q0-0.5 0.3-0.8t0.8-0.3 0.8 0.3l8 8q0.3 0.3 0.3 0.8z"/>
  </symbol>

  <symbol id="tabela" viewBox="0 0 32 32">
    <path d="M0 2v28h32v-28h-32zM12 20v-6h8v6h-8zM20 22v6h-8v-6h8zM20 6v6h-8v-6h8zM10 6v6h-8v-6h8zM2 14h8v6h-8v-6zM22 14h8v6h-8v-6zM22 12v-6h8v6h-8zM2 22h8v6h-8v-6zM22 28v-6h8v6h-8z"/>
  </symbol>
  <symbol id="tablet" viewBox="0 0 32 32">
    <path d="M25 0h-20c-1.6 0-3 1.4-3 3v26c0 1.7 1.4 3 3 3h20c1.7 0 3-1.3 3-3v-26c0-1.6-1.3-3-3-3zM15 31c-0.6 0-1-0.4-1-1s0.4-1 1-1 1 0.4 1 1-0.4 1-1 1zM24 28h-18v-24h18v24z"/>
  </symbol>
  <symbol id="teclado" viewBox="0 0 32 32">
    <path d="M29.8 6.4h-27.5c-1.2 0-2.2 1-2.2 2.2v14.7c0 1.2 1 2.2 2.2 2.2h27.5c1.2 0 2.2-1 2.2-2.2v-14.7c0-1.2-1-2.2-2.2-2.2zM17.6 9.6h3.2v3.2h-3.2v-3.2zM22.4 14.4v3.2h-3.2v-3.2h3.2zM12.8 9.6h3.2v3.2h-3.2v-3.2zM17.6 14.4v3.2h-3.2v-3.2h3.2zM8 9.6h3.2v3.2h-3.2v-3.2zM12.8 14.4v3.2h-3.2v-3.2h3.2zM3.2 9.6h3.2v3.2h-3.2v-3.2zM8 14.4v3.2h-3.2v-3.2h3.2zM6.4 22.4h-3.2v-3.2h3.2v3.2zM24 22.4h-16v-3.2h16v3.2zM28.8 22.4h-3.2v-3.2h3.2v3.2zM24 17.6v-3.2h3.2v3.2h-3.2zM28.8 12.8h-6.4v-3.2h6.4v3.2z"/>
  </symbol>
  <symbol id="telefone" viewBox="0 0 32 32">
    <path d="M18 18c-2.5 2.5-5.5 5-6.6 3.8-1.7-1.7-2.7-3.1-6.3-0.2s-0.8 4.9 0.8 6.5c1.9 1.9 8.8 0.1 15.6-6.7 6.8-6.8 8.6-13.8 6.7-15.6-1.6-1.6-3.6-4.4-6.5-0.8s-1.5 4.7 0.2 6.3c1.2 1.2-1.3 4.1-3.8 6.6z"/>
  </symbol>
  <symbol id="twitter" viewBox="0 0 32 32">
    <path d="M32 6.1c-1.2 0.5-2.4 0.9-3.8 1 1.4-0.8 2.4-2.1 2.9-3.6-1.3 0.8-2.7 1.3-4.2 1.6-1.2-1.3-2.9-2.1-4.8-2.1-3.6 0-6.6 2.9-6.6 6.6 0 0.5 0.1 1 0.2 1.5-5.5-0.3-10.3-2.9-13.5-6.9-0.6 1-0.9 2.1-0.9 3.3 0 2.3 1.2 4.3 2.9 5.5-1.1 0-2.1-0.3-3-0.8 0 0 0 0.1 0 0.1 0 3.2 2.3 5.8 5.3 6.4-0.6 0.2-1.1 0.2-1.7 0.2-0.4 0-0.8 0-1.2-0.1 0.8 2.6 3.3 4.5 6.1 4.6-2.2 1.8-5.1 2.8-8.2 2.8-0.5 0-1.1 0-1.6-0.1 2.9 1.9 6.4 3 10.1 3 12.1 0 18.7-10 18.7-18.7 0-0.3 0-0.6 0-0.8 1.3-0.9 2.4-2.1 3.3-3.4z"/>
  </symbol>

  <symbol id="upload" viewBox="0 0 30 32">
    <path d="M29.7 18.9v10.3q0 0.2-0.2 0.4t-0.4 0.2h-28.6q-0.2 0-0.4-0.2t-0.2-0.4v-10.3q0-0.2 0.2-0.4t0.4-0.2h3.4q0.2 0 0.4 0.2t0.2 0.4v6.3h20.6v-6.3q0-0.2 0.2-0.4t0.4-0.2h3.4q0.2 0 0.4 0.2t0.2 0.4zM24 12.6q0 0.5-0.3 0.8t-0.8 0.3h-4.6v8q0 0.5-0.3 0.8t-0.8 0.3h-4.6q-0.5 0-0.8-0.3t-0.3-0.8v-8h-4.6q-0.5 0-0.8-0.3t-0.3-0.8 0.3-0.8l8-8q0.3-0.3 0.8-0.3t0.8 0.3l8 8q0.3 0.3 0.3 0.8z"/>
  </symbol>

  <symbol id="zip" viewBox="0 0 32 32">
    <path d="M13 4h3v2h-3zM10 6h3v2h-3zM13 8h3v2h-3zM10 10h3v2h-3zM13 12h3v2h-3zM10 14h3v2h-3zM13 16v2h-3v7c0 0.6 0.4 1 1 1h4c0.6 0 1-0.4 1-1v-9h-3zM15 24h-4v-2h4v2zM28.2 6.2l-4.5-4.5c-1-1-2.9-1.8-4.3-1.8h-15c-1.4 0-2.5 1.1-2.5 2.5v27c0 1.4 1.1 2.5 2.5 2.5h23c1.4 0 2.5-1.1 2.5-2.5v-19c0-1.4-0.8-3.3-1.8-4.3zM26.8 7.6c0.1 0.1 0.2 0.2 0.3 0.4h-5.1v-5.1c0.1 0.1 0.3 0.2 0.4 0.3l4.5 4.5zM28 29.5c0 0.3-0.2 0.5-0.5 0.5h-23c-0.3 0-0.5-0.2-0.5-0.5v-27c0-0.3 0.2-0.5 0.5-0.5h15c0.2 0 0.3 0 0.5 0.1v7.9h7.9c0 0.2 0.1 0.3 0.1 0.5v19z"/>
  </symbol>

</svg>
