<svg xmlns="http://www.w3.org/2000/svg" width="32" height="32" viewBox="0 0 32 32">
    <path d="M29.8 8C31.3 10.4 32 13.1 32 16c0 2.9-0.7 5.6-2.2 8 -1.4 2.5-3.4 4.4-5.8 5.8 -2.4 1.4-5.1 2.1-8 2.1 -2.9 0-5.6-0.7-8-2.1 -2.4-1.4-4.4-3.4-5.8-5.8C0.7 21.6 0 18.9 0 16c0-2.9 0.7-5.6 2.2-8 1.4-2.4 3.4-4.4 5.8-5.8 2.4-1.4 5.1-2.1 8-2.1 2.9 0 5.6 0.7 8 2.1C26.5 3.6 28.4 5.5 29.8 8zM21.3 26v-1.3c0-0.2-0.1-0.4-0.2-0.5 -0.1-0.1-0.3-0.2-0.5-0.2h-2v-10c0-0.2-0.1-0.4-0.2-0.5 -0.1-0.1-0.3-0.2-0.5-0.2h-6.7c-0.2 0-0.3 0.1-0.5 0.2 -0.1 0.1-0.2 0.3-0.2 0.5v1.3c0 0.2 0.1 0.4 0.2 0.5 0.1 0.1 0.3 0.2 0.5 0.2h2v8h-2c-0.2 0-0.3 0.1-0.5 0.2 -0.1 0.1-0.2 0.3-0.2 0.5v1.3c0 0.2 0.1 0.4 0.2 0.5 0.1 0.1 0.3 0.2 0.5 0.2h9.3c0.2 0 0.4-0.1 0.5-0.2S21.3 26.2 21.3 26zM18.7 10V6c0-0.2-0.1-0.4-0.2-0.5 -0.1-0.1-0.3-0.2-0.5-0.2h-4c-0.2 0-0.3 0.1-0.5 0.2 -0.1 0.1-0.2 0.3-0.2 0.5v4c0 0.2 0.1 0.4 0.2 0.5 0.1 0.1 0.3 0.2 0.5 0.2h4c0.2 0 0.4-0.1 0.5-0.2C18.6 10.4 18.7 10.2 18.7 10z" fill="#FFF"/>
</svg>
