<svg xmlns="http://www.w3.org/2000/svg" width="32" height="32" viewBox="0 0 32 32">
	<path d="M29.8 7.9C31.3 10.4 32 13.1 32 16c0 2.9-0.7 5.6-2.2 8.1-1.4 2.5-3.4 4.4-5.8 5.8C21.6 31.3 18.9 32 16 32c-2.9 0-5.6-0.7-8-2.1-2.4-1.4-4.4-3.4-5.8-5.8C0.7 21.6 0 18.9 0 16c0-2.9 0.7-5.6 2.2-8.1C3.6 5.5 5.5 3.6 8 2.1 10.4 0.7 13.1 0 16 0c2.9 0 5.6 0.7 8 2.1C26.5 3.6 28.4 5.5 29.8 7.9zM26.8 12.6c0-0.4-0.1-0.7-0.4-0.9l-1.9-1.9c-0.3-0.3-0.6-0.4-1-0.4-0.4 0-0.7 0.1-0.9 0.4l-8.5 8.5-4.7-4.7C9.1 13.3 8.8 13.1 8.5 13.1c-0.3 0-0.7 0.1-0.9 0.4l-1.9 1.9c-0.2 0.3-0.3 0.6-0.3 1 0 0.4 0.1 0.7 0.3 0.9l7.6 7.5c0.3 0.3 0.6 0.4 0.9 0.4 0.3 0 0.7-0.1 0.9-0.4l11.3-11.3C26.6 13.3 26.8 13 26.8 12.6z" fill="#fff"/>
</svg>
