<svg xmlns="http://www.w3.org/2000/svg" width="32" height="32" viewBox="0 0 32 32">
    <path d="M29.8 8C31.3 10.4 32 13.1 32 16c0 2.9-0.7 5.6-2.2 8 -1.4 2.4-3.4 4.4-5.8 5.8 -2.5 1.4-5.1 2.1-8 2.1 -2.9 0-5.6-0.7-8-2.1 -2.5-1.4-4.4-3.4-5.8-5.8C0.7 21.6 0 18.9 0 16c0-2.9 0.7-5.6 2.2-8 1.4-2.4 3.4-4.4 5.8-5.8 2.4-1.4 5.1-2.1 8-2.1 2.9 0 5.6 0.7 8 2.1C26.5 3.6 28.4 5.5 29.8 8zM23.9 20.7c0-0.4-0.1-0.7-0.3-0.9l-3.8-3.8 3.8-3.8c0.2-0.2 0.3-0.5 0.3-0.9 0-0.3-0.1-0.7-0.3-0.9l-1.9-1.9c-0.2-0.3-0.5-0.4-0.9-0.4 -0.3 0-0.7 0.1-0.9 0.4l-3.8 3.7L12.2 8.5c-0.3-0.3-0.6-0.4-0.9-0.4 -0.4 0-0.7 0.1-1 0.4l-1.9 1.9c-0.3 0.3-0.4 0.6-0.4 0.9 0 0.4 0.1 0.7 0.4 0.9l3.8 3.8 -3.8 3.8c-0.3 0.2-0.4 0.5-0.4 0.9 0 0.4 0.1 0.7 0.4 0.9l1.9 1.9c0.3 0.3 0.6 0.4 1 0.4 0.3 0 0.7-0.1 0.9-0.4l3.7-3.7 3.8 3.7c0.3 0.3 0.6 0.4 0.9 0.4 0.4 0 0.7-0.1 0.9-0.4l1.9-1.9C23.8 21.4 23.9 21.1 23.9 20.7z" fill="#FFF"/>
</svg>
