<svg xmlns="http://www.w3.org/2000/svg" width="32" height="32" viewBox="0 0 32 32">
  <path d="M15.8 1.3c-8.1 0.1-14.6 6.8-14.5 14.9 0.1 8.1 6.8 14.6 14.9 14.5 8.1-0.1 14.6-6.8 14.5-14.9-0.1-8.1-6.8-14.6-14.9-14.5zM15.8 25h-0.1c-1.3 0-2.1-1-2.1-2.2 0-1.2 0.9-2.1 2.2-2.1l0.1 0c1.3 0 2.2 1 2.1 2.2 0 1.2-0.9 2.1-2.2 2.1zM21 14.5c-0.3 0.4-0.9 0.9-1.8 1.6l-0.9 0.6c-0.5 0.4-0.8 0.7-0.9 1.1-0.1 0.3-0.1 0.4-0.1 0.9l0 0.1h-3.4l0-0.3c0-1.2 0.1-1.9 0.6-2.5 0.8-0.9 2.5-2 2.6-2.1 0.2-0.2 0.5-0.4 0.6-0.6 0.4-0.5 0.5-0.9 0.5-1.3 0-0.5-0.2-1-0.5-1.5-0.3-0.4-0.9-0.6-1.7-0.6-0.8 0-1.4 0.3-1.7 0.8-0.3 0.5-0.5 1.1-0.5 1.7v0.1h-3.5l0-0.2c0.1-2.2 0.9-3.7 2.3-4.6 0.9-0.6 2-0.9 3.3-0.9 1.7 0 3.2 0.4 4.3 1.2 1.2 0.8 1.7 2.1 1.7 3.7 0 0.9-0.3 1.8-0.9 2.5z"/>
</svg>
