<svg xmlns="http://www.w3.org/2000/svg" width="32" height="32" viewBox="0 0 32 32">
  <path d="M31.3 10.7C30.9 10.2 30.4 10 29.8 10H28V2h2V0H18v2h2v8h-8V2h2V0H2v2h2v8H2.3c-0.6 0-1.2 0.2-1.6 0.7C0.2 11.1 0 11.6 0 12.3v17.5c0 0.6 0.2 1.2 0.7 1.6S1.6 32 2.3 32h9.5c0.6 0 1.2-0.2 1.6-0.6C13.8 30.9 14 30.4 14 29.8V18h4v11.8c0 0.6 0.2 1.2 0.7 1.6C19.1 31.8 19.6 32 20.3 32h9.5c0.6 0 1.2-0.2 1.6-0.6C31.8 30.9 32 30.4 32 29.8v-17.5C32 11.6 31.8 11.1 31.3 10.7zM11.7 29.7C11.5 29.9 11.2 30 10.9 30H3.1c-0.3 0-0.6-0.1-0.8-0.3C2.1 29.5 2 29.3 2 29s0.1-0.5 0.3-0.7C2.5 28.1 2.8 28 3.1 28h7.8c0.3 0 0.6 0.1 0.8 0.3C11.9 28.5 12 28.7 12 29S11.9 29.5 11.7 29.7zM17.7 15.7C17.5 15.9 17.3 16 17 16h-2c-0.3 0-0.5-0.1-0.7-0.3C14.1 15.5 14 15.3 14 15c0-0.3 0.1-0.5 0.3-0.7C14.5 14.1 14.7 14 15 14h2c0.3 0 0.5 0.1 0.7 0.3C17.9 14.5 18 14.7 18 15 18 15.3 17.9 15.5 17.7 15.7zM29.7 29.7C29.5 29.9 29.2 30 28.9 30h-7.8c-0.3 0-0.6-0.1-0.8-0.3C20.1 29.5 20 29.3 20 29s0.1-0.5 0.3-0.7C20.5 28.1 20.8 28 21.1 28h7.8c0.3 0 0.6 0.1 0.8 0.3C29.9 28.5 30 28.7 30 29S29.9 29.5 29.7 29.7z"/>
</svg>
