<svg xmlns="http://www.w3.org/2000/svg" width="32" height="32" viewBox="0 0 32 32">
  <path d="M13.3 4.3v4.8c0 2.8-1.4 4.3-4.2 4.3H4.3c-2.8 0-4.2-1.4-4.2-4.2V4.3C0 1.4 1.4 0 4.3 0h4.8C11.9 0 13.3 1.4 13.3 4.3zM13.3 22.9v4.8c0 2.8-1.4 4.3-4.2 4.3H4.3C1.4 32 0 30.6 0 27.8v-4.8c0-2.8 1.4-4.2 4.3-4.2h4.8C11.9 18.7 13.3 20.1 13.3 22.9zM32 4.3v4.8c0 2.8-1.4 4.3-4.2 4.3h-4.8c-2.8 0-4.2-1.4-4.2-4.2V4.3c0-2.8 1.4-4.2 4.3-4.2h4.8C30.6 0 32 1.4 32 4.3zM32 22.9v4.8c0 2.8-1.4 4.3-4.2 4.3h-4.8c-2.8 0-4.2-1.4-4.2-4.2v-4.8c0-2.8 1.4-4.2 4.3-4.2h4.8C30.6 18.7 32 20.1 32 22.9z"/>
</svg>
