<svg xmlns="http://www.w3.org/2000/svg" width="32" height="32" viewBox="0 0 32 32">
  <path d="M32 16c0-2.1-0.5-4.2-1.3-6.1-0.8-1.9-2-3.6-3.5-5.1-1.5-1.4-3.2-2.6-5.2-3.3-1.9-0.7-4-1.1-6-1.1-2 0-4 0.5-5.9 1.3-1.8 0.8-3.5 2-4.9 3.4s-2.5 3.1-3.2 5c-0.7 1.8-1.1 3.8-1 5.8 0 2 0.5 3.9 1.3 5.7 0.8 1.8 1.9 3.4 3.3 4.7 1.4 1.3 3 2.4 4.8 3.1 1.8 0.7 3.7 1 5.6 1 1.9 0 3.8-0.5 5.5-1.2 1.7-0.8 3.3-1.9 4.6-3.2 1.3-1.3 2.3-2.9 3-4.7 0.4-1 0.7-2.1 0.8-3.2 0 0 0.1 0 0.1 0 1.1 0 2-0.9 2-2 0-0.1 0-0.1 0-0.2l0 0zM28.8 21.3c-0.7 1.7-1.8 3.2-3.1 4.4s-2.8 2.2-4.5 2.9c-1.7 0.6-3.4 1-5.2 0.9-1.8 0-3.5-0.4-5.1-1.1-1.6-0.7-3.1-1.7-4.2-3s-2.1-2.7-2.8-4.3c-0.6-1.6-0.9-3.3-0.9-5 0-1.7 0.4-3.4 1.1-4.9 0.7-1.5 1.7-2.9 2.9-4.1s2.6-2.1 4.2-2.7c1.5-0.6 3.2-0.9 4.8-0.8 1.6 0 3.3 0.4 4.7 1.1 1.5 0.7 2.8 1.6 3.9 2.8s2 2.5 2.5 4c0.6 1.5 0.8 3.1 0.8 4.6h0c0 0.1 0 0.1 0 0.2 0 1 0.8 1.9 1.8 2-0.2 1.1-0.5 2.2-1 3.2z"/>
</svg>
