<svg xmlns="http://www.w3.org/2000/svg" width="32" height="32" viewBox="0 0 32 32">
  <path d="M25.1 13.7q0 2.5-1.7 4.6t-4.6 3.3-6.3 1.2q-1.5 0-3.1-0.3-2.2 1.6-5 2.3-0.6 0.2-1.5 0.3h-0.1q-0.2 0-0.4-0.1t-0.2-0.4q0-0.1 0-0.1t0-0.1 0-0.1l0-0.1t0.1-0.1 0.1-0.1 0.1-0.1 0.1-0.1q0.1-0.1 0.4-0.4t0.5-0.5 0.4-0.5 0.4-0.7 0.4-0.8q-2.2-1.3-3.5-3.2t-1.3-4q0-2.5 1.7-4.6t4.6-3.3 6.3-1.2 6.3 1.2 4.6 3.3 1.7 4.6zM32 18.3q0 2.1-1.3 4t-3.5 3.2q0.2 0.4 0.4 0.8t0.4 0.7 0.4 0.5 0.5 0.5 0.4 0.4q0 0 0.1 0.1t0.1 0.1 0.1 0.1 0.1 0.1l0 0.1t0 0.1 0 0.1 0 0.1q-0.1 0.3-0.2 0.4t-0.4 0.1q-0.9-0.1-1.5-0.3-2.7-0.7-5-2.3-1.6 0.3-3.1 0.3-4.8 0-8.4-2.4 1 0.1 1.6 0.1 2.9 0 5.5-0.8t4.7-2.3q2.2-1.6 3.4-3.8t1.2-4.5q0-1.4-0.4-2.7 2.3 1.3 3.6 3.2t1.3 4.1z"/>
</svg>
