<?xml version="1.0" encoding="utf-8"?>
<!-- Generator: Adobe Illustrator 16.0.0, SVG Export Plug-In . SVG Version: 6.00 Build 0)  -->
<!DOCTYPE svg PUBLIC "-//W3C//DTD SVG 1.1//EN" "http://www.w3.org/Graphics/SVG/1.1/DTD/svg11.dtd">
<svg version="1.1" id="Layer_1" xmlns="http://www.w3.org/2000/svg" xmlns:xlink="http://www.w3.org/1999/xlink" x="0px" y="0px"
	 width="32px" height="32px" viewBox="0 0 32 32" enable-background="new 0 0 32 32" xml:space="preserve">
<path d="M15.801,7.567c0-0.997-0.355-1.851-1.067-2.562c-0.712-0.712-1.566-1.068-2.562-1.068S10.321,4.292,9.61,5.005
	C8.897,5.716,8.542,6.57,8.542,7.567c0,0.569,0.107,1.103,0.32,1.602C8.364,8.956,7.83,8.849,7.26,8.849
	c-0.996,0-1.851,0.356-2.562,1.067c-0.712,0.712-1.068,1.566-1.068,2.563c0,0.996,0.356,1.851,1.068,2.562
	c0.711,0.711,1.566,1.067,2.562,1.067c0.997,0,1.851-0.355,2.562-1.067c0.712-0.712,1.068-1.566,1.068-2.562
	c0-0.499-0.106-1.032-0.32-1.602c0.499,0.213,1.032,0.32,1.602,0.32c0.996,0,1.851-0.356,2.562-1.068
	C15.445,9.417,15.801,8.563,15.801,7.567z M32.029,21.019c0,0.215-0.32,0.642-0.961,1.283c-0.641,0.64-1.067,0.959-1.279,0.959
	c-0.143,0-0.321-0.105-0.534-0.319c-0.215-0.214-0.463-0.429-0.749-0.64c-0.283-0.215-0.533-0.465-0.746-0.748
	c-0.213-0.285-0.355-0.463-0.428-0.535l-1.814,1.815l4.166,4.163c0.354,0.355,0.532,0.783,0.532,1.282
	c0,0.569-0.25,1.067-0.748,1.495c-0.499,0.426-0.997,0.675-1.495,0.746c-0.496,0-0.924-0.178-1.281-0.534L13.88,17.177
	c-2.207,1.637-4.52,2.455-6.94,2.455c-2.064,0-3.737-0.641-5.019-1.923C0.641,16.429,0,14.756,0,12.692
	c0-2.064,0.604-4.057,1.815-5.979c1.21-1.921,2.776-3.487,4.698-4.697C8.435,0.804,10.428,0.2,12.492,0.2s3.737,0.64,5.018,1.921
	c1.281,1.282,1.922,2.954,1.922,5.019c0,2.42-0.818,4.733-2.455,6.94l6.726,6.726l1.815-1.813c-0.069-0.071-0.25-0.214-0.533-0.427
	c-0.285-0.215-0.533-0.463-0.748-0.748c-0.213-0.284-0.426-0.533-0.641-0.747c-0.213-0.214-0.318-0.393-0.318-0.534
	c0-0.214,0.318-0.641,0.959-1.282c0.643-0.64,1.066-0.961,1.281-0.961c0.144,0,0.284,0.072,0.428,0.214
	c0.072,0.071,0.354,0.356,0.854,0.854c0.499,0.499,1.032,0.998,1.602,1.495c0.57,0.498,1.104,1.031,1.603,1.602
	c0.499,0.57,0.962,1.067,1.39,1.495c0.428,0.427,0.604,0.677,0.533,0.748L32.029,21.019z"/>
</svg>
