<svg xmlns="http://www.w3.org/2000/svg" width="32" height="32" viewBox="0 0 32 32">
  <path d="M21.8 10.2l-2-2-10.1 10.1c-1.7 1.7-1.7 4.4 0 6.1s4.4 1.7 6.1 0l12.2-12.2c2.8-2.8 2.8-7.3 0-10.1-2.8-2.8-7.3-2.8-10.1 0l-12.8 12.8c0 0 0 0 0 0-3.9 3.9-3.9 10.2 0 14.2 3.9 3.9 10.2 3.9 14.2 0 0 0 0 0 0 0l0 0 8.7-8.7-2-2-8.7 8.7c0 0 0 0 0 0-2.8 2.8-7.3 2.8-10.1 0-2.8-2.8-2.8-7.3 0-10.1 0 0 0 0 0 0l0 0 12.8-12.8c1.7-1.7 4.4-1.7 6.1 0s1.7 4.4 0 6.1l-12.2 12.2c-0.6 0.6-1.5 0.6-2 0-0.6-0.6-0.6-1.5 0-2l10.2-10.1z"/>
</svg>
