<svg xmlns="http://www.w3.org/2000/svg" width="27" height="32" viewBox="0 0 27 32">
  <path d="M4.6 8q0-0.5-0.3-0.8t-0.8-0.3-0.8 0.3-0.3 0.8 0.3 0.8 0.8 0.3 0.8-0.3 0.3-0.8zM25.1 18.3q0-0.6-0.4-1.4t-1-0.8q0.3-0.3 0.4-0.8t0.2-1q0-1.2-0.9-2.1 0.3-0.6 0.3-1.2t-0.3-1.3-0.8-0.9q0.1-0.5 0.1-1 0-1.5-0.9-2.2t-2.4-0.7h-2.3q-2.3 0-6.1 1.3-0.1 0-0.5 0.2t-0.6 0.2-0.6 0.2-0.7 0.2-0.6 0.1-0.6 0.1h-0.6v11.4h0.6q0.3 0 0.6 0.2t0.7 0.5 0.7 0.6 0.7 0.8 0.6 0.8 0.6 0.7 0.4 0.5q1 1.2 1.4 1.6 0.7 0.8 1.1 2t0.5 2.2 0.7 1.5q1.7 0 2.3-0.8t0.6-2.6q0-1.1-0.9-2.9t-0.9-2.8h6.3q0.9 0 1.6-0.7t0.7-1.6zM27.4 18.3q0 1.8-1.4 3.2t-3.2 1.4h-3.1q0.9 1.8 0.9 3.4 0 2.1-0.6 3.3-0.6 1.2-1.8 1.8t-2.7 0.6q-0.9 0-1.6-0.7-0.6-0.6-1-1.5t-0.5-1.6-0.3-1.5-0.6-1.1q-0.9-0.9-1.9-2.3-1.8-2.3-2.4-2.8h-4.9q-0.9 0-1.6-0.7t-0.7-1.6v-11.4q0-0.9 0.7-1.6t1.6-0.7h5.1q0.4 0 2.5-0.7 2.3-0.8 4-1.2t3.6-0.4h2q2.5 0 4 1.4t1.5 3.9v0.1q1.1 1.4 1.1 3.2 0 0.4-0.1 0.8 0.7 1.2 0.7 2.6 0 0.6-0.2 1.2 0.9 1.3 0.9 2.9z"/>
</svg>
