<svg xmlns="http://www.w3.org/2000/svg" width="32" height="32" viewBox="-144 -144 320 320">
  <path d="M15.5-55.2c-27.1 0-48.1 32.1-48.1 71.2 0 39.1 21.1 71.2 48.1 71.2 27.1 0 48.1-32.1 48.1-71.2C63.7-23.1 42.6-55.2 15.5-55.2zM21.1 50.6v11.5H10.1V51.4c-7.6-0.3-14.9-2.4-19.2-4.9l3.4-13.2c4.8 2.6 11.4 5 18.8 5 6.4 0 10.9-2.5 10.9-7 0-4.3-3.6-7-12-9.8C-0.2 17.4-8.5 11.7-8.5 0.7c0-10 7-17.8 19.1-20.1v-10.7h11.1v10c7.6 0.3 12.7 1.9 16.4 3.7l-3.3 12.8c-2.9-1.2-8.1-3.8-16.3-3.8 -7.4 0-9.7 3.2-9.7 6.3 0 3.7 4 6.1 13.6 9.7 13.5 4.8 18.9 11 18.9 21.2C41.3 39.8 34.1 48.4 21.1 50.6z"/>
  <path d="M172-88.3c-2-2-4-3-7-3h-298.9c-2 0-5 1-7 3 -2 2-3 4-3 7v194.6c0 2 1 5 3 7 2 2 4 3 7 3h299.9c2 0 5-1 7-3 2-3 3-5 3-8V-81.3C176.1-83.3 175.1-86.3 172-88.3zM154 59.1c-11 0-21.1 4-30.1 13 -8 8-12 18.1-12 30.1h-192.6c0-11-4-22.1-12-30.1 -8-9-18.1-13-30.1-13v-85.3c12 0 22.1-5 30.1-13 8-8 12-18.1 12-30.1h192.6c0 11 4 22.1 12 30.1 8 9 18.1 13 30.1 13V59.1z"/>
</svg>
