<svg xmlns="http://www.w3.org/2000/svg" width="27" height="32" viewBox="0 0 27 32">
  <path d="M18.3 16q0-1.9-1.3-3.2t-3.2-1.3-3.2 1.3-1.3 3.2 1.3 3.2 3.2 1.3 3.2-1.3 1.3-3.2zM27.4 14.1v4q0 0.2-0.1 0.4t-0.4 0.2l-3.3 0.5q-0.3 1-0.7 1.6 0.6 0.9 1.9 2.5 0.2 0.2 0.2 0.4t-0.2 0.4q-0.5 0.7-1.8 1.9t-1.7 1.3q-0.2 0-0.5-0.2l-2.5-1.9q-0.8 0.4-1.6 0.7-0.3 2.4-0.5 3.3-0.1 0.5-0.6 0.5h-4q-0.2 0-0.4-0.2t-0.2-0.4l-0.5-3.3q-0.9-0.3-1.6-0.7l-2.5 1.9q-0.2 0.2-0.4 0.2-0.2 0-0.4-0.2-2.2-2-2.9-3-0.1-0.2-0.1-0.4 0-0.2 0.1-0.4 0.3-0.4 0.9-1.2t1-1.3q-0.5-0.9-0.7-1.8l-3.3-0.5q-0.2 0-0.4-0.2t-0.1-0.4v-4q0-0.2 0.1-0.4t0.3-0.2l3.3-0.5q0.3-0.8 0.7-1.6-0.7-1-1.9-2.5-0.2-0.2-0.2-0.4 0-0.2 0.2-0.4 0.5-0.6 1.8-1.9t1.7-1.3q0.2 0 0.5 0.2l2.5 1.9q0.8-0.4 1.6-0.7 0.3-2.4 0.5-3.3 0.1-0.5 0.6-0.5h4q0.3 0 0.4 0.2t0.2 0.4l0.5 3.3q0.9 0.3 1.6 0.7l2.5-1.9q0.2-0.2 0.4-0.2 0.2 0 0.4 0.2 2.3 2.1 2.9 3 0.1 0.1 0.1 0.4 0 0.2-0.1 0.4-0.3 0.4-0.9 1.2t-1 1.3q0.5 0.9 0.7 1.8l3.3 0.5q0.2 0 0.4 0.2t0.1 0.4z"/>
</svg>
