<svg xmlns="http://www.w3.org/2000/svg" width="32" height="32" viewBox="0 0 32 32">
  <path d="M32 1.8v22.8c0 0.8-0.4 1.3-1.1 1.6l-14.2 5.7c0 0-0.1 0.1-0.3 0.1 -0.1 0-0.2 0.1-0.3 0.1 -0.1 0-0.2 0-0.3-0.1 0 0-0.1 0-0.3-0.1L1.1 26.2C0.4 25.9 0 25.4 0 24.6V1.8c0-0.6 0.3-1.1 0.8-1.5 0.5-0.4 1.1-0.4 1.7-0.2L16 5.6l13.6-5.4c0.6-0.2 1.1-0.2 1.7 0.2C31.7 0.7 32 1.2 32 1.8zM14.2 8.5L2.8 3.9v19.9l11.4 4.6V8.5zM12.1 15.1L5 12.2V9.9l7.1 2.8V15.1zM12.1 22.5L5 19.6v-2.4l7.1 2.9V22.5zM29.2 3.9l-11.4 4.6v19.9l11.4-4.6V3.9zM27 12.2l-7.1 2.8v-2.4L27 9.9V12.2zM27 19.6l-7.1 2.8v-2.4L27 17.2V19.6z"/>
</svg>
