<svg xmlns="http://www.w3.org/2000/svg" width="32" height="32" viewBox="0 0 32 32">
  <path d="M3.2 8.9c0 2.4 0.8 4.1 2.4 5.1 1.3 0.8 2.8 1 3.6 1 0.2 0 0.3 0 0.4 0 0 0-0.2 1.6 0.9 3.2l-0.1 0c-2.1 0-8.8 0.4-8.8 6 0 5.6 6.2 5.9 7.4 5.9 0.1 0 0.2 0 0.2 0 0 0 0.1 0 0.3 0 0.8 0 2.9-0.1 4.8-1 2.5-1.2 3.7-3.3 3.7-6.2 0-2.8-1.9-4.5-3.3-5.7-0.9-0.7-1.6-1.4-1.6-2 0-0.6 0.5-1.1 1.2-1.7 1.1-1 2.1-2.4 2.1-5 0-2.3-0.3-3.9-2.2-4.9 0.2-0.1 0.9-0.2 1.2-0.2 1-0.1 2.5-0.3 2.5-1.1v-0.2h-7.4c-0.1 0-7.4 0.3-7.4 7zM15.1 23.4c0.1 2.3-1.8 3.9-4.7 4.1-2.9 0.2-5.4-1.1-5.5-3.4-0.1-1.1 0.4-2.1 1.3-3 0.9-0.9 2.2-1.4 3.6-1.5 0.2 0 0.3 0 0.5 0 2.7 0 4.6 1.6 4.7 3.7zM13.1 7.4c0.7 2.5-0.4 5.2-2.1 5.7-0.2 0.1-0.4 0.1-0.6 0.1-1.6 0-3.2-1.6-3.8-3.8-0.3-1.2-0.3-2.3 0.1-3.4 0.4-1 1-1.7 1.9-2 0.2-0.1 0.4-0.1 0.6-0.1 1.9 0 3.2 0.8 3.9 3.5zM25.5 12.9v-4.8h-3v4.8h-4.8v3h4.8v4.8h3v-4.8h4.8v-3h-4.8z"/>
</svg>
