<svg xmlns="http://www.w3.org/2000/svg" width="32" height="32" viewBox="0 0 32 32">
  <path d="M6.2 5.3C6.6 5.7 6.9 6.2 6.9 6.9c0 0.6-0.2 1.2-0.7 1.6C5.7 8.9 5.2 9.1 4.6 9.1H2.3c-0.6 0-1.2-0.2-1.6-0.7C0.2 8 0 7.5 0 6.9 0 6.2 0.2 5.7 0.7 5.3 1.1 4.8 1.7 4.6 2.3 4.6h2.3C5.2 4.6 5.7 4.8 6.2 5.3zM6.2 14.4C6.6 14.8 6.9 15.4 6.9 16c0 0.6-0.2 1.2-0.7 1.6 -0.5 0.5-1 0.7-1.6 0.7H2.3c-0.6 0-1.2-0.2-1.6-0.7C0.2 17.2 0 16.6 0 16c0-0.6 0.2-1.2 0.7-1.6 0.5-0.5 1-0.7 1.6-0.7h2.3C5.2 13.7 5.7 13.9 6.2 14.4zM6.2 23.5c0.5 0.5 0.7 1 0.7 1.6 0 0.6-0.2 1.2-0.7 1.6 -0.5 0.5-1 0.7-1.6 0.7H2.3c-0.6 0-1.2-0.2-1.6-0.7C0.2 26.3 0 25.8 0 25.1c0-0.6 0.2-1.2 0.7-1.6 0.5-0.5 1-0.7 1.6-0.7h2.3C5.2 22.9 5.7 23.1 6.2 23.5zM12.1 8.5c-0.5-0.5-0.7-1-0.7-1.6 0-0.6 0.2-1.2 0.7-1.6 0.5-0.5 1-0.7 1.6-0.7h16c0.6 0 1.2 0.2 1.6 0.7C31.8 5.7 32 6.2 32 6.9c0 0.6-0.2 1.2-0.7 1.6 -0.5 0.5-1 0.7-1.6 0.7h-16C13.1 9.1 12.6 8.9 12.1 8.5zM31.3 14.4C31.8 14.8 32 15.4 32 16c0 0.6-0.2 1.2-0.7 1.6 -0.5 0.5-1 0.7-1.6 0.7h-16c-0.6 0-1.2-0.2-1.6-0.7 -0.5-0.5-0.7-1-0.7-1.6 0-0.6 0.2-1.2 0.7-1.6 0.5-0.5 1-0.7 1.6-0.7h16C30.3 13.7 30.9 13.9 31.3 14.4zM31.3 23.5C31.8 24 32 24.5 32 25.1c0 0.6-0.2 1.2-0.7 1.6 -0.5 0.5-1 0.7-1.6 0.7h-16c-0.6 0-1.2-0.2-1.6-0.7 -0.5-0.5-0.7-1-0.7-1.6 0-0.6 0.2-1.2 0.7-1.6 0.5-0.5 1-0.7 1.6-0.7h16C30.3 22.9 30.9 23.1 31.3 23.5z"/>
</svg>
