<svg xmlns="http://www.w3.org/2000/svg" width="32" height="32" viewBox="0 0 32 32">
  <path d="M5.4 12.7l1.8 15.5c0.1 0.7 3.7 3.2 8.8 3.2 5.2 0 8.7-2.4 8.8-3.2l1.8-15.5c-2.7 1.5-6.7 2.2-10.6 2.2s-7.9-0.7-10.6-2.2zM21.1 3.1l-1.4-1.5c-0.5-0.8-1.1-0.9-2.2-0.9h-2.9c-1.1 0-1.7 0.1-2.2 0.9l-1.4 1.5c-4.1 0.7-7.1 2.6-7.1 4v0.3c0 2.5 5.4 4.5 12.2 4.5s12.2-2 12.2-4.5v-0.3c0-1.4-3-3.3-7.1-4zM19.3 6.6l-2-2.1h-2.6l-2 2.1h-2.7c0 0 3-3.6 3.4-4 0.3-0.4 0.6-0.5 1-0.5h3.3c0.4 0 0.7 0.1 1 0.5 0.4 0.5 3.4 4 3.4 4h-2.7z"/>
</svg>
