<svg xmlns="http://www.w3.org/2000/svg" width="25" height="32" viewBox="0 0 25 32">
  <path d="M25.1 14.3v3.4c0 0.5-0.2 0.9-0.5 1.2 -0.3 0.3-0.7 0.5-1.2 0.5H16V26.8c0 0.5-0.2 0.9-0.5 1.2s-0.7 0.5-1.2 0.5h-3.4c-0.5 0-0.9-0.2-1.2-0.5 -0.3-0.3-0.5-0.7-0.5-1.2V19.4H1.8c-0.5 0-0.9-0.2-1.2-0.5 -0.3-0.3-0.5-0.7-0.5-1.2v-3.4c0-0.5 0.2-0.9 0.5-1.2 0.3-0.3 0.7-0.5 1.2-0.5h7.4V5.2c0-0.5 0.2-0.9 0.5-1.2 0.3-0.3 0.7-0.5 1.2-0.5h3.4c0.5 0 0.9 0.2 1.2 0.5C15.8 4.3 16 4.7 16 5.2v7.4h7.4c0.5 0 0.9 0.2 1.2 0.5C24.9 13.4 25.1 13.8 25.1 14.3z"/>
</svg>
